<svg xmlns="http://www.w3.org/2000/svg" xmlns:xlink="http://www.w3.org/1999/xlink" viewBox="0 0 182.07 124.38"><defs><style>.cls-1{fill:#eccbc0;}.cls-2{fill:#f7d6b8;}.cls-3,.cls-58{fill:#fff;}.cls-4,.cls-67,.cls-69,.cls-70{fill:none;stroke-miterlimit:10;}.cls-4{stroke:#f6891f;stroke-width:10px;}.cls-5{fill:#f6891f;}.cls-6{fill:#223134;opacity:0.2;}.cls-7{fill:#be202f;}.cls-8{fill:#fdc130;}.cls-9{fill:#f15b22;}.cls-10{fill:#d37a69;}.cls-11{fill:#710f13;}.cls-12{fill:#c85349;}.cls-13{fill:#f47b24;}.cls-14{fill:#97a4a8;}.cls-15{fill:#594844;}.cls-16{fill:#0092ad;}.cls-17{fill:#323737;}.cls-18{fill:#525758;}.cls-19{fill:#005466;}.cls-20{fill:#221e1f;}.cls-21{fill:#f6cea4;}.cls-22{fill:#fad2bb;}.cls-23{fill:#f7daca;}.cls-24,.cls-25{fill:#1a3d5b;}.cls-25{fill-rule:evenodd;}.cls-26{fill:#23bbd0;}.cls-27{fill:#a1dbe3;}.cls-28{fill:#f1bfa8;}.cls-29{fill:#274061;}.cls-30{fill:#ddb093;}.cls-31{fill:url(#Dégradé_sans_nom_2);}.cls-32{fill:#006b8f;}.cls-33{fill:#1f0e31;}.cls-33,.cls-58,.cls-62,.cls-66{opacity:0.6;}.cls-34{fill:#253169;}.cls-35{fill:#181546;}.cls-36{fill:#3d286a;}.cls-37{fill:#29396a;}.cls-38{fill:#f47b20;}.cls-39{fill:#4c4590;}.cls-40{fill:url(#Dégradé_sans_nom_2-2);}.cls-41{fill:#c57729;}.cls-42{fill:#f0b31d;}.cls-43{fill:#686969;}.cls-44{fill:#3d4140;}.cls-45{fill:#fbc69b;}.cls-46{fill:#efbca6;}.cls-47{fill:#c67158;}.cls-48{fill:#004d5e;}.cls-49,.cls-62{fill:#1c1331;}.cls-50{fill:url(#Dégradé_sans_nom_2-3);}.cls-51{fill:#d9ae90;}.cls-52{fill:url(#Dégradé_sans_nom_2-4);}.cls-53{fill:url(#Dégradé_sans_nom_2-5);}.cls-54{fill:url(#Dégradé_sans_nom_86);}.cls-55{fill:url(#Dégradé_sans_nom_89);}.cls-56{fill:#a7dbd6;opacity:0.23;}.cls-57{fill:#004d70;}.cls-59{fill:#7d1416;}.cls-60{fill:url(#Dégradé_sans_nom_2-6);}.cls-61{fill:url(#Dégradé_sans_nom_5);}.cls-63{fill:url(#Dégradé_sans_nom_5-2);}.cls-64{fill:#23b8cc;}.cls-65{fill:url(#Dégradé_sans_nom_2-7);}.cls-66{fill:#0f0f24;}.cls-67{stroke:#43286c;}.cls-68{fill:#046880;}.cls-69{stroke:#3d2869;}.cls-70{stroke:#0c5b6e;}.cls-71{opacity:0.14;fill:url(#Dégradé_sans_nom_18);}</style><linearGradient id="Dégradé_sans_nom_2" x1="119.35" y1="26.2" x2="129.98" y2="26.2" gradientUnits="userSpaceOnUse"><stop offset="0" stop-color="#042e4b"/><stop offset="1" stop-color="#002838"/></linearGradient><linearGradient id="Dégradé_sans_nom_2-2" x1="6.82" y1="101.43" x2="17.47" y2="101.43" xlink:href="#Dégradé_sans_nom_2"/><linearGradient id="Dégradé_sans_nom_2-3" x1="-1061.26" y1="110.7" x2="-1061.26" y2="90.77" gradientTransform="matrix(-1, 0, 0, 1, -904.91, 0)" xlink:href="#Dégradé_sans_nom_2"/><linearGradient id="Dégradé_sans_nom_2-4" x1="158.1" y1="115.15" x2="158.1" y2="114" xlink:href="#Dégradé_sans_nom_2"/><linearGradient id="Dégradé_sans_nom_2-5" x1="152.26" y1="115.05" x2="152.26" y2="113.9" xlink:href="#Dégradé_sans_nom_2"/><linearGradient id="Dégradé_sans_nom_86" x1="153.09" y1="84.54" x2="159.12" y2="84.54" gradientUnits="userSpaceOnUse"><stop offset="0" stop-color="#009fb6"/><stop offset="1" stop-color="#0092bb"/></linearGradient><linearGradient id="Dégradé_sans_nom_89" x1="157.19" y1="83.09" x2="164.45" y2="83.09" gradientUnits="userSpaceOnUse"><stop offset="0" stop-color="#007083"/><stop offset="1" stop-color="#0092bb"/></linearGradient><linearGradient id="Dégradé_sans_nom_2-6" x1="112.65" y1="117.77" x2="112.65" y2="95.96" xlink:href="#Dégradé_sans_nom_2"/><linearGradient id="Dégradé_sans_nom_5" x1="106.03" y1="90.07" x2="121.62" y2="90.07" gradientUnits="userSpaceOnUse"><stop offset="0" stop-color="#f78c23"/><stop offset="1" stop-color="#e56325"/></linearGradient><linearGradient id="Dégradé_sans_nom_5-2" x1="106.03" y1="90.49" x2="109.91" y2="90.49" xlink:href="#Dégradé_sans_nom_5"/><linearGradient id="Dégradé_sans_nom_2-7" x1="-999.74" y1="121.86" x2="-999.74" y2="99.7" gradientTransform="matrix(-1, 0, 0, 1, -904.91, 0)" xlink:href="#Dégradé_sans_nom_2"/><linearGradient id="Dégradé_sans_nom_18" x1="80.27" y1="13.87" x2="109.01" y2="13.87" gradientUnits="userSpaceOnUse"><stop offset="0" stop-color="#94d6d9"/><stop offset="1" stop-color="#c9e9eb"/></linearGradient></defs><title>Asset 4</title><g id="Layer_2" data-name="Layer 2"><g id="Layer_1-2" data-name="Layer 1"><g id="Layer_115" data-name="Layer 115"><path class="cls-1" d="M7.6,84.31c3.35,20.67-5.75,22-7.6,28H182c.53-3.82-1.15-8.61-6-14.59-13.85-17.09-12.78-32.26-9.29-45,2.5-4.41,13.37-19.53,3.68-32.86-12.28-16.9-38.58-1.74-45,1.65-34.85,18.38-67.77-9.79-86-10.11a5.83,5.83,0,0,0-5.38,1,10.35,10.35,0,0,0-1.23.65c-7.81,4.86-7.9,12.58-3.64,21.08,8.18,23.82-23.68,27-22.64,39.82C6.56,74.83,7.1,81.21,7.6,84.31Z"/><rect class="cls-2" x="30.59" y="97.18" width="13.94" height="12.84"/><rect class="cls-2" x="45.55" y="87.25" width="13.94" height="22.78"/><rect class="cls-2" x="60.58" y="72.8" width="13.94" height="37.23"/><rect class="cls-2" x="75.54" y="67.85" width="13.94" height="42.17"/><rect class="cls-2" x="90.43" y="83.64" width="13.94" height="26.38"/><rect class="cls-2" x="105.39" y="69.43" width="13.94" height="40.59"/><rect class="cls-2" x="120.42" y="58.02" width="13.94" height="52"/><rect class="cls-2" x="135.38" y="51.37" width="13.94" height="58.66"/><rect class="cls-2" x="15.54" y="103.29" width="13.94" height="6.85"/><rect class="cls-3" x="25.45" y="102.36" width="15.7" height="7.66"/><rect class="cls-3" x="42.3" y="96.43" width="15.7" height="13.59"/><rect class="cls-3" x="59.22" y="87.81" width="15.7" height="22.21"/><rect class="cls-3" x="76.07" y="84.86" width="15.7" height="25.16"/><rect class="cls-3" x="92.85" y="94.28" width="15.7" height="15.74"/><rect class="cls-3" x="109.7" y="85.8" width="15.7" height="24.22"/><rect class="cls-3" x="126.62" y="78.99" width="15.7" height="31.02"/><rect class="cls-3" x="143.47" y="75.02" width="15.7" height="34.99"/><rect class="cls-3" x="8.49" y="106" width="15.7" height="4.09"/><polyline class="cls-4" points="152.29 66.82 127.39 84.03 108.17 76.83 87.06 92.94 65.77 80.7 41.15 102.36 24.19 106"/><polygon class="cls-5" points="154.13 70.18 148.82 64.08 157.38 62.47 154.13 70.18"/><rect class="cls-6" x="38.69" y="38.02" width="104.95" height="59.27"/><rect class="cls-7" x="37.93" y="36.32" width="104.95" height="59.73"/><rect class="cls-3" x="41.8" y="38.03" width="97.05" height="54.04"/><rect class="cls-8" x="45.7" y="50.36" width="6.56" height="18.18"/><rect class="cls-9" x="54.83" y="47" width="6.56" height="21.54"/><rect class="cls-7" x="63.95" y="59.45" width="6.56" height="9.09"/><rect class="cls-10" x="73.08" y="42.26" width="6.56" height="26.28"/><path class="cls-9" d="M53.66,76.8a5.77,5.77,0,1,1-5.82,5.77A5.8,5.8,0,0,1,53.66,76.8Z"/><path class="cls-11" d="M76.34,82.9a5.83,5.83,0,0,1-6.62,4.88,5.74,5.74,0,0,1-5.11-6.37,5.85,5.85,0,0,1,6.62-4.88A5.75,5.75,0,0,1,76.34,82.9Z"/><path class="cls-8" d="M57.48,78.22a6.39,6.39,0,0,0-3.85-1.61l-.12,5.56Z"/><path class="cls-3" d="M53.63,76.61a5.92,5.92,0,0,0-5.77,5.54h5.77Z"/><path class="cls-3" d="M67,77.48a6.61,6.61,0,0,0-2.35,4.06l5.82.74Z"/><path class="cls-12" d="M71.36,76.51,69.85,87.75a5.67,5.67,0,1,0,1.51-11.24Z"/><path class="cls-9" d="M64.59,81.56a5.93,5.93,0,0,0,5.22,6.21l.74-5.45Z"/><path class="cls-3" d="M53.63,79.78a2.74,2.74,0,1,1-2.76,2.73A2.75,2.75,0,0,1,53.63,79.78Z"/><path class="cls-3" d="M73.19,82.46a2.76,2.76,0,0,1-3.14,2.31,2.73,2.73,0,0,1-2.42-3,2.77,2.77,0,0,1,3.14-2.31A2.72,2.72,0,0,1,73.19,82.46Z"/><rect class="cls-13" x="45.7" y="70.88" width="6.56" height="0.73"/><rect class="cls-13" x="54.72" y="70.88" width="6.56" height="0.73"/><rect class="cls-13" x="64.09" y="70.88" width="6.56" height="0.73"/><rect class="cls-13" x="72.96" y="70.88" width="6.56" height="0.73"/><polygon class="cls-12" points="135.11 46.88 127.87 50.71 120.18 55.78 115.5 51.59 106.76 61.28 101.41 56.66 92.43 65.25 84.74 62.18 84.74 71.41 135.11 71.41 135.11 46.88"/><polygon class="cls-11" points="135.11 57.01 127.1 61.22 120.18 62.45 115.5 59.89 106.76 65.81 101.41 62.99 92.43 68.24 84.74 66.37 84.74 72.01 135.11 72.01 135.11 57.01"/><rect class="cls-9" x="84.89" y="75.07" width="14.08" height="0.82"/><rect class="cls-9" x="84.89" y="77.3" width="22.68" height="0.82"/><rect class="cls-14" x="84.89" y="79.82" width="22.68" height="0.41"/><rect class="cls-14" x="84.89" y="81.92" width="22.68" height="0.41"/><rect class="cls-14" x="84.89" y="84.03" width="22.68" height="0.41"/><rect class="cls-14" x="84.89" y="86.13" width="16.02" height="0.41"/><rect class="cls-14" x="112.43" y="75.25" width="22.68" height="0.41"/><rect class="cls-14" x="112.43" y="77.35" width="22.68" height="0.41"/><rect class="cls-14" x="112.43" y="79.46" width="22.68" height="0.41"/><rect class="cls-14" x="112.43" y="81.56" width="16.02" height="0.41"/><path class="cls-7" d="M111.56,110.42c-3.41-2.31-11.12-3.93-20.09-3.93s-16.68,1.62-20.08,3.93Z"/><polygon class="cls-7" points="85.22 96.05 97.88 96.05 96.67 106.49 86.27 106.49 85.22 96.05"/><polygon class="cls-15" points="85.56 100.21 97.46 99 97.8 96.05 85.14 96.05 85.56 100.21"/><polygon class="cls-16" points="21.04 110.59 20.39 110.38 34.75 59.84 35.39 60.05 21.04 110.59"/><polygon class="cls-16" points="29.88 110.59 29.23 110.38 43.58 59.84 44.23 60.05 29.88 110.59"/><rect class="cls-16" x="23.12" y="101.79" width="8.84" height="0.73"/><rect class="cls-16" x="24.33" y="97.16" width="8.84" height="0.73"/><rect class="cls-16" x="25.85" y="93" width="8.84" height="0.73"/><rect class="cls-16" x="27.06" y="88.37" width="8.84" height="0.73"/><rect class="cls-16" x="28.15" y="84.34" width="8.84" height="0.73"/><rect class="cls-16" x="29.36" y="79.72" width="8.84" height="0.73"/><rect class="cls-16" x="30.65" y="75.53" width="8.84" height="0.73"/><rect class="cls-16" x="31.86" y="70.9" width="8.84" height="0.73"/><rect class="cls-16" x="33.17" y="66.57" width="8.84" height="0.73"/><rect class="cls-16" x="34.38" y="61.94" width="8.84" height="0.73"/><path class="cls-3" d="M56.4,45.94a1.13,1.13,0,0,0,1.08-.12L60.16,44c.3-.23,0-.7-.27-1h0a.69.69,0,0,0-1-.13l-2.08,1.83C56.33,45.13,56.18,45.64,56.4,45.94Z"/><path class="cls-17" d="M56.4,45.76a1.13,1.13,0,0,0,1.08-.12l2.68-1.82c.3-.22,0-.7-.27-1h0a.69.69,0,0,0-1-.12l-2.08,1.82C56.33,44.94,56.18,45.46,56.4,45.76Z"/><path class="cls-18" d="M57.22,44.59s.23.16.39,0l.85-.54c.1-.07-.07-.3-.19-.44h0c-.11-.15-.27-.21-.36-.14l-.63.6A.34.34,0,0,0,57.22,44.59Z"/><path class="cls-19" d="M59,43.42l-.17.06a1.15,1.15,0,0,1-1.42-.77l-.23-5.79A1.15,1.15,0,0,1,58,35.5l.17,0a1.14,1.14,0,0,1,1.42.76L59.78,42A1.14,1.14,0,0,1,59,43.42Z"/><path class="cls-19" d="M70.35,35.83c0-1.18-6.52-3-6.52-3s-6.51,1.74-6.51,3.13.61,1.65.61,1.65H70.35Z"/><path class="cls-3" d="M71.68,45.75a1.13,1.13,0,0,1-1.08-.12l-2.68-1.81c-.3-.23,0-.71.28-1h0a.67.67,0,0,1,1-.13l2.08,1.82C71.75,44.93,71.91,45.45,71.68,45.75Z"/><path class="cls-17" d="M71.68,45.56a1.13,1.13,0,0,1-1.08-.12l-2.68-1.81c-.3-.23,0-.7.28-1h0a.67.67,0,0,1,1-.13l2.08,1.83C71.75,44.75,71.91,45.26,71.68,45.56Z"/><path class="cls-18" d="M70.86,44.39s-.23.16-.39,0l-.85-.53c-.09-.07.08-.3.19-.45h0c.11-.14.27-.2.37-.13l.62.59A.34.34,0,0,1,70.86,44.39Z"/><path class="cls-19" d="M69.06,43.23l.18.05a1.13,1.13,0,0,0,1.41-.76l.09-5.79A1.13,1.13,0,0,0,70,35.31l-.17-.05a1.14,1.14,0,0,0-1.42.76l-.09,5.79A1.14,1.14,0,0,0,69.06,43.23Z"/><path class="cls-9" d="M67.18,30.58c0,.55,1.12,0,2.19-.58V28.42a3.89,3.89,0,0,0-3.67-4.06H62.42a3.88,3.88,0,0,0-3.66,4.06v1.95c1,.37,1.87.58,1.87.21v3.88a3.81,3.81,0,0,0,2.46,1.16H64.9a3.55,3.55,0,0,0,2.28-1.15Z"/><rect class="cls-20" x="62.86" y="29.4" width="2.23" height="2.86" rx="0.9"/><path class="cls-21" d="M65.07,31.22l-.37-.71a.65.65,0,0,0-.93-.28l-1.45.93a.77.77,0,0,0-.32.51l-1.37.69V30.82l-1.87-.59L59,34s.18,1.18.9,1.18c.5,0,1.83-1.45,2.55-2.29a.63.63,0,0,0,.9.24l1.45-.93A.8.8,0,0,0,65.07,31.22Z"/><path class="cls-21" d="M63,31.17l.37-.71a.64.64,0,0,1,.92-.28l1.45.93a.75.75,0,0,1,.33.51l1.37.69V30.77l1.87-.59L69,34s-.18,1.18-.89,1.18c-.51,0-1.83-1.45-2.55-2.29a.64.64,0,0,1-.9.24l-1.45-.93A.78.78,0,0,1,63,31.17Z"/><path class="cls-22" d="M66,23.05a.46.46,0,0,1,.34-.22c.22,0,.08.66,0,.92S66,24.11,66,24Z"/><path class="cls-23" d="M66,21.41c0-.72-1-.57-1.76-.64s-1.73-.08-1.76.64.07,2.8.13,3.33a2.59,2.59,0,0,0,1.63,1.53,2.59,2.59,0,0,0,1.63-1.53C66,24.21,66.06,22.13,66,21.41Z"/><path class="cls-24" d="M65.89,20.87A3.64,3.64,0,0,0,64.27,20a3.4,3.4,0,0,0-1.62.78c-.68.52-.46.36-.49.58a9.51,9.51,0,0,0,.13,1.6c.06.2.25.07.25.07s0-1.06.41-1.17a2,2,0,0,1,1.13,0,7.79,7.79,0,0,1,1.51,0c.42.11.41,1.17.41,1.17s.18.13.25-.07a9.51,9.51,0,0,0,.13-1.6C66.35,21.16,66.57,21.39,65.89,20.87Z"/><path class="cls-22" d="M62.54,23.05a.48.48,0,0,0-.34-.22c-.22,0-.08.66,0,.92s.3.36.39.21Z"/><path class="cls-25" d="M62.63,23c0,.64,0,.47-.13.13,0-.18-.16-.28-.28-.28s-.21.3-.24.36a6.23,6.23,0,0,1,.23-1.66,2.16,2.16,0,0,1,4.17-.08,5.45,5.45,0,0,1,.19,1.65c0-.12-.14-.27-.22-.27s-.23.1-.28.28c-.1.34-.14.51-.12-.13C66.08,19.39,62.5,19.38,62.63,23Z"/><path class="cls-25" d="M62.62,22.87a2.28,2.28,0,0,1,.21-1.14c.15-.28.3-.42.75-.28a2.42,2.42,0,0,0,.75.11,2.53,2.53,0,0,0,.76-.11c.38-.12.48,0,.64.25A2.08,2.08,0,0,1,66,22.87a1.92,1.92,0,0,0-1.68-3C62.65,19.87,62.27,21.53,62.62,22.87Z"/><path class="cls-24" d="M65.43,21.38c.17-.32.45.3.58.76a1.6,1.6,0,0,0,.25-.78c0-.65-.38-1.18-.79-1.18l-.12,0a1.25,1.25,0,0,0-1.07-.49c-.64,0-1,.68-1.76.67s-1,0-1,0a2.49,2.49,0,0,0,1,1.29,4.6,4.6,0,0,0,1.5.22C64.4,21.88,65.28,21.67,65.43,21.38Z"/><path class="cls-7" d="M167.55,106.48a2.92,2.92,0,0,0-2.14,1,5.38,5.38,0,0,0-9.77-.45,4.2,4.2,0,0,0-3.34-1.71,4.38,4.38,0,0,0-4.16,3.42,4.4,4.4,0,0,0-3.44,2.91h25.48a3.54,3.54,0,0,0,.46-1.75A3.24,3.24,0,0,0,167.55,106.48Z"/><path class="cls-7" d="M70.21,120.28a2.74,2.74,0,0,0-2.51-2.39,2.28,2.28,0,0,0-1.59.66,4.16,4.16,0,0,0-8.31,0,2.28,2.28,0,0,0-1.58-.66,2.75,2.75,0,0,0-2.52,2.39Z"/><path class="cls-7" d="M12.57,111.68A2.54,2.54,0,0,1,15,109.12a2.27,2.27,0,0,1,.59.09,2.47,2.47,0,0,1,2.19-2,1.87,1.87,0,0,1,.87.22,3,3,0,0,1,2.75-2.61c1.54,0,2.79,1.51,2.84,3.39a2.29,2.29,0,0,1,1.9-1.16,2.66,2.66,0,0,1,2.37,2.87,3.52,3.52,0,0,1-.06.66h0a1.51,1.51,0,0,1,1.26-.83,1.88,1.88,0,0,1,1.61,1.92Z"/><path class="cls-26" d="M121.37,33.58l.24-1a1.61,1.61,0,0,1-.33-.06,2.23,2.23,0,0,1-.51-.19l-.24,1a2.82,2.82,0,0,0,.51.19Z"/><path class="cls-27" d="M129.7,21.58l-.12-.47c-.25.08-.49.15-.75.21l-.47.1.12.47.47-.1Q129.32,21.7,129.7,21.58Z"/><path class="cls-28" d="M125.25,3.75a3.25,3.25,0,0,1-.61-2.37c.13-.66,1.8-1.15,2.37-1.15s.49.77.49.77a19.34,19.34,0,0,1,1.14,1.6L128.1,3s.63,1.14.28,1.31a7,7,0,0,1-1.2.18L127,6.15l-1.72-.54Z"/><path class="cls-29" d="M126.2,1c0-.4.82-.12,1.24-.25.27-.08,0-.53-.32-.69-.62-.28-1.52.34-1.52.34s-.92.43-1.07,1a6.79,6.79,0,0,0,.37,2.21s-.34-.16.27-.31.33-.85.66-.88.85.57.85.57l.39-.1A11.33,11.33,0,0,1,126.2,1Z"/><polygon class="cls-30" points="125.71 3.3 126.44 4.55 127.1 4.69 127.18 4.46 126.48 4.39 125.79 3.3 125.71 3.3"/><polygon class="cls-30" points="128.36 2.35 127.72 1.29 128.64 2.6 128.55 2.69 128.36 2.35"/><polygon class="cls-31" points="129.98 35.46 127.91 36.06 127.32 29.38 127.56 27.19 126.63 20.25 124.76 26.77 121.41 36.07 119.35 36.07 120.92 30.14 122.31 25.82 122.9 16.89 127.3 16.61 129.84 16.33 129.98 35.46"/><path class="cls-32" d="M134.29,4.24l-1.7,4s-.15.37-.43,0a14,14,0,0,1-2.23-1.69l-.89-1h-.11l0,0v0l-1.21-.09-.61,5.21-2.42-5.52L121.8,7.2,121,8.56l-.19,2.93,2.08-1.65.28,3.45-.4,3.86,7.46-.49-.84-6.76.61.39,2.61.92s.46,0,.62-.21,2.8-5.78,2.8-5.78Z"/><polygon class="cls-33" points="127.74 26.82 127.55 29.27 127.97 35.85 127.31 29.15 127.53 26.84 126.63 20.25 126.88 19.34 127.74 26.82"/><rect class="cls-34" x="122.76" y="27.52" width="1.02" height="0.14" transform="translate(18.9 98.74) rotate(-46.9)"/><polygon class="cls-35" points="133.24 37.14 129.24 37.14 128.93 36.86 128.68 37.14 127.97 37.14 127.97 35.85 129.97 35.59 130.96 36.47 133.24 36.97 133.24 37.14"/><polygon class="cls-35" points="121.31 37.3 119.31 37.2 119.26 36.67 119.54 36.07 121.31 36.14 121.31 37.3"/><polygon class="cls-3" points="127.09 10.67 124.74 5.22 125.03 5.17 126.63 6.03 127.3 5.32 127.7 5.46 127.09 10.67"/><polygon class="cls-33" points="122.87 17.22 126.44 17.08 129.77 16.66 122.83 16.96 122.87 17.22"/><rect class="cls-36" x="122.78" y="8.34" width="0.14" height="1.5" transform="translate(-0.31 11.52) rotate(-5.36)"/><rect class="cls-37" x="129.27" y="7.72" width="0.14" height="2.18" transform="translate(-0.29 10.2) rotate(-4.51)"/><polygon class="cls-28" points="134.97 2.64 135.33 2.68 135.39 3.34 135.94 2.73 136.58 2.71 136.77 2.98 136.48 3.74 136.05 4.4 135.57 4.88 134.78 4.53 134.97 2.64"/><rect class="cls-34" x="122" y="27.54" width="1.56" height="0.14" transform="translate(17.19 96.08) rotate(-45.63)"/><rect class="cls-34" x="128.7" y="27.15" width="1.02" height="0.14" transform="translate(21.05 102.96) rotate(-46.9)"/><polygon class="cls-33" points="129.35 9.5 129.38 9.84 132.64 11.21 129.35 9.5"/><polygon class="cls-33" points="121.36 11.08 121.36 11.08 122.9 9.9 122.83 9.57 121.15 11.07 121.36 11.08"/><polygon class="cls-32" points="121.17 12.59 123.14 10.55 122.76 6.47 121.68 7.24 119.12 11.99 119.57 17.91 121.16 17.59 121.17 12.59"/><polygon class="cls-28" points="121.63 19.24 121.32 19.41 120.91 18.95 120.81 19.69 121.36 20.84 121.01 20.86 120.32 20.03 119.83 19.22 119.8 18.51 119.91 17.91 120.73 17.75 121.63 19.24"/><polygon class="cls-28" points="135.36 2.95 134.91 2.95 135 2.14 135.36 2.51 135.36 2.95"/><polygon class="cls-28" points="136.32 4.39 135.68 4.72 135.68 2.69 136.77 2.69 136.32 4.39"/><rect class="cls-38" x="128.9" y="1.45" width="0.42" height="0.85" rx="0.21"/><polygon class="cls-38" points="129.12 2.1 129.94 2.15 129.94 1.6 129.12 1.65 129.12 2.1"/><polygon class="cls-38" points="129.94 2.3 133.56 2.4 133.56 1.36 129.94 1.45 129.94 2.3"/><polygon class="cls-38" points="133.56 2.61 141.69 2.8 141.69 0.95 133.56 1.14 133.56 2.61"/><rect class="cls-38" x="141.69" y="0.79" width="0.65" height="2.18" rx="0.33"/><path class="cls-3" d="M142.39,1V2.8a1.32,1.32,0,0,0,.34-.92A1.33,1.33,0,0,0,142.39,1Z"/><rect class="cls-3" x="133.55" y="1.15" width="8.13" height="0.27" transform="translate(0 2.42) rotate(-1.01)"/><rect class="cls-3" x="129.95" y="1.44" width="3.61" height="0.27" transform="translate(-0.01 1.8) rotate(-0.78)"/><rect class="cls-3" x="129.33" y="1.7" width="0.62" height="0.14" transform="translate(0.12 7.6) rotate(-3.36)"/><path class="cls-3" d="M141.78,1.13l-.19-.2A.75.75,0,0,1,142,.79a.56.56,0,0,1,.42.13l-.18.2a.42.42,0,0,0-.24-.06A.36.36,0,0,0,141.78,1.13Z"/><ellipse class="cls-12" cx="12.61" cy="113.53" rx="10.56" ry="0.86"/><path class="cls-39" d="M11.36,92.4a.08.08,0,0,0,.08-.05L12,90.43a.07.07,0,0,0-.05-.09.08.08,0,0,0-.1,0l-.52,1.92a.07.07,0,0,0,.05.09Z"/><path class="cls-40" d="M6.87,89.75l8.26-.24c.08,1.52.28,5.72.44,8,.33,6.52,1,14.81,1,14.81l.94,1H15.15L12.28,97.56,11.37,93H10.8l-.39,4.6L8.85,113.34H6.9l.48-.88s-.36-7.35-.52-14.9C6.81,95.52,6.8,91.65,6.87,89.75Z"/><path class="cls-41" d="M4.18,84.3a2,2,0,0,1,.08-.46,6.43,6.43,0,0,1,.52-1.57l1.48-3.43a7.73,7.73,0,0,1,.85-1.39,3,3,0,0,1,2.69-1.1c.54,0-.9,2.17-1.24,2.71-.51.78-.67,1.73-1.46,3.22-.27.5-.48,1.27-.79,1.85,0,.11,0,.22,0,.32l0,2.3a7.59,7.59,0,0,0,.15,2,.74.74,0,0,1-.29.76,1.15,1.15,0,0,1-.7.27,14.54,14.54,0,0,1-1.11-3.21,5.65,5.65,0,0,1-.11-.7A9.39,9.39,0,0,1,4.18,84.3Z"/><path class="cls-42" d="M6.66,90.47l8.6.36c0-1.51-.13-3.61-.21-4.78,0-.07,0-.14,0-.21,0-.75-.08-1.48-.07-2.27v-.23c0-.31,0-.62,0-1,0-.53.1-1.1.19-1.71.12-.86.66-2.07.52-2.73A2.44,2.44,0,0,0,14,76.27a3.35,3.35,0,0,0-1-.13l-3.57.12c-2.47.08-2.73,2.45-2.67,4.08,0,1.29.14,2.58.2,3.88a26.81,26.81,0,0,1-.11,4.39C6.77,89.12,6.67,90,6.66,90.47Z"/><path class="cls-41" d="M9.89,83.88c1.09.49,3.69,1.43,4.23,1.72a8.93,8.93,0,0,0,.93.46,1.55,1.55,0,0,0,0-.22c0-.75-.08-1.48-.07-2.27a17.89,17.89,0,0,1-2.9-.85c-.29-.12-1.33-.69-1.53-.37a3.61,3.61,0,0,1-.76.75A.45.45,0,0,0,9.89,83.88Z"/><path class="cls-43" d="M8.58,79.59v.07l.7,2.63a.31.31,0,0,0,.3.21l1.5,0,.13,0h0a.16.16,0,0,0,0-.18l-.69-2.63a.32.32,0,0,0-.3-.21l-1.5,0A.19.19,0,0,0,8.58,79.59Z"/><path class="cls-44" d="M8.58,79.59v.07l.7,2.63a.31.31,0,0,0,.3.21l1.5,0,.13,0h0a.2.2,0,0,0,0-.07l-.69-2.63a.32.32,0,0,0-.3-.21l-1.5,0A.17.17,0,0,0,8.58,79.59Z"/><path class="cls-45" d="M10.88,82c.51.22.59,1,.79,1.2s-.25.42-.79.35A2.4,2.4,0,0,1,9.61,83a1.26,1.26,0,0,1-.35-1C9.28,81.54,10.21,81.67,10.88,82Z"/><path class="cls-42" d="M11.22,82.37c.2-.22.41-.06.7,0a33.16,33.16,0,0,0,4.19.4l-.26-.61c-.79-1.81-1.26-2.57-1.57-3.22s-1.58-2.8-1-2.82c1.36,0,2.16.26,2.71,1.2A26.19,26.19,0,0,1,18.06,82a5.94,5.94,0,0,1,.61,1.74s0,.44,0,.46c0,.31,0,.17-.2.34l-.05.1c-.35.63-2.71.51-4.3-.12-.75-.3-3-1.35-3-1.35A.83.83,0,0,1,11.22,82.37Z"/><path class="cls-41" d="M10,76.24a.85.85,0,0,0,.09.22A1.2,1.2,0,0,0,11.2,77a2.49,2.49,0,0,0,1.67-.83l.05,0Z"/><path class="cls-46" d="M12.61,74.43v1.81a1.67,1.67,0,0,1-2.63,0l.11-1.85Z"/><path class="cls-47" d="M11.27,75.67h.1a1.51,1.51,0,0,0,1.13-.36.06.06,0,0,0,0-.09.08.08,0,0,0-.1,0,1.36,1.36,0,0,1-1,.33,1.4,1.4,0,0,1-1-.57.08.08,0,0,0-.1,0,.06.06,0,0,0,0,.09A1.56,1.56,0,0,0,11.27,75.67Z"/><path class="cls-45" d="M13.13,72.37c.16,1.48,0,3.07-1.15,3.18a2.28,2.28,0,0,1-2.57-2.06c-.16-1.48.6-2.87,1.72-3.11S13,70.89,13.13,72.37Z"/><path class="cls-48" d="M13,71a.54.54,0,0,0-.08-.49l-.08-.11a2.67,2.67,0,0,0-.49-.46h0A3.56,3.56,0,0,0,9.75,70a1.24,1.24,0,0,0-.68.77,2.83,2.83,0,0,0,0,1.61c0,.14.06.27.09.38a3.64,3.64,0,0,0,.74,1.53.47.47,0,0,0,.34.12h0a.25.25,0,0,1,0-.07,1.86,1.86,0,0,1,0-.47A.24.24,0,0,1,10,74a.37.37,0,0,1-.19-.07.62.62,0,0,1-.3-.56,1,1,0,0,1,0-.27h0a.44.44,0,0,1,.09-.18.13.13,0,0,1,.11-.06A.42.42,0,0,1,10,73v0c0,.07,0,.14,0,.21s.05.16.07.23a.81.81,0,0,0,.29.12v0a3.44,3.44,0,0,1-.13-1.32c0-.11,0-.22,0-.33s0-.2,0-.31h0a4.12,4.12,0,0,0,1.33-.23,1.46,1.46,0,0,0-.41.27l-.11.1-.28.27a3.72,3.72,0,0,0,1.85-.59l.22-.15h0c0,.12,0,.23,0,.35a7.93,7.93,0,0,1,0,1.29h0c0-.11.06-.22.09-.33a3.4,3.4,0,0,0,.09-.46A2.08,2.08,0,0,0,13,71Z"/><path class="cls-45" d="M6.88,89.29h0l-.41-.38L6.41,89a1.14,1.14,0,0,1-1,.75,2.91,2.91,0,0,0,.86.78,1.68,1.68,0,0,0,1.11.27.44.44,0,0,0,.41-.35A10.68,10.68,0,0,0,6.88,89.29Z"/><polygon class="cls-49" points="7.76 112.4 8.94 112.47 8.84 113.34 6.35 113.34 7.76 112.4"/><polygon class="cls-49" points="19.35 113.38 16.11 113.38 15.86 113.07 15.66 113.38 15.09 113.38 15.09 111.96 16.7 111.66 17.5 112.64 19.35 113.19 19.35 113.38"/><ellipse class="cls-12" cx="155.34" cy="115.15" rx="8.03" ry="1.12"/><path class="cls-48" d="M156.46,75s.18-3.23-.7-3.56-1.51,1.23-1.51,1.23a4.59,4.59,0,0,0-.53,1.43,1.32,1.32,0,0,0,.19,1,1.83,1.83,0,0,1,1.5,1.07,11.83,11.83,0,0,1-.09,3.65s2.58-.8,1.78-2A5.73,5.73,0,0,1,156.46,75Z"/><ellipse class="cls-48" cx="157.91" cy="76.5" rx="1.78" ry="5.5" transform="translate(-17.43 69.84) rotate(-23.67)"/><polygon class="cls-50" points="152.6 110.59 154.46 110.7 155.05 103.74 155.57 101.27 155.83 98.82 156.63 101.3 158.54 110.7 160.11 110.7 159.71 104.4 159.16 99.81 158.72 91.36 155.35 91.06 153.4 90.77 152.6 110.59"/><polygon class="cls-51" points="160.14 114.42 157.18 114.75 159.11 113.2 159.11 110.8 159.91 110.8 159.95 112.77 160.14 114.42"/><path class="cls-52" d="M159.34,114.33s-1.2.11-1.69.17a3.3,3.3,0,0,0-1.58.65h1.63l1.64-.52V115h.78v-1Z"/><polygon class="cls-51" points="154.3 114.32 151.34 114.65 153.27 113.1 153.27 110.69 154.07 110.69 154.12 112.67 154.3 114.32"/><path class="cls-53" d="M153.5,114.23s-1.2.11-1.69.17a3.29,3.29,0,0,0-1.57.65h1.62l1.64-.52v.38h.78v-1Z"/><path class="cls-54" d="M159.12,82.15l-1.5-4.61-2.17,1a14.44,14.44,0,0,0-1.33,3.3,14.17,14.17,0,0,0-.14,3.86,17.71,17.71,0,0,1-.89,5.46s1.49-.09,2.87,0a17.74,17.74,0,0,1,2.83.4,15.75,15.75,0,0,1-1.2-4.69A12.93,12.93,0,0,1,159.12,82.15Z"/><path class="cls-55" d="M164.31,84.42l-6.55-6.67a2.52,2.52,0,0,0-.55,2c.16,1.31,1.91,2.37,1.91,2.37l2.73,3.14-1.38,1.33.82,1.82s2.37-1.9,2.89-2.35S164.31,84.42,164.31,84.42Z"/><path class="cls-45" d="M156.71,75.07,155,71.71l-.48.82a2.52,2.52,0,0,0-.28.54c0,.18-.69.75-.47.82a.22.22,0,0,1,.15.18,2.09,2.09,0,0,1,0,.48,1.36,1.36,0,0,0,.33,1,1.83,1.83,0,0,1,1.63.85,2.45,2.45,0,0,1,0,1.94s2.86.54,1.9-.56A5.84,5.84,0,0,1,156.71,75.07Z"/><ellipse class="cls-48" cx="156.28" cy="73.17" rx="1.19" ry="1.9" transform="translate(-16.23 68.82) rotate(-23.65)"/><polygon class="cls-45" points="158.8 88.79 161 87.99 160.68 87.1 158.56 87.95 158.8 88.79"/><ellipse class="cls-45" cx="157.61" cy="88.43" rx="1.51" ry="0.62"/><path class="cls-48" d="M155.69,71.37l-.35.12a5.77,5.77,0,0,1,2.14,3.08c.05.18.09.36.13.54a2.23,2.23,0,0,0,1.25-2.46A2.45,2.45,0,0,0,155.69,71.37Z"/><ellipse class="cls-56" cx="131.41" cy="70.92" rx="9.69" ry="9.78" transform="translate(-16.16 93.74) rotate(-37.15)"/><path class="cls-1" d="M143.6,69.66a12.33,12.33,0,0,1-1.42,7.65,12,12,0,0,1-16.55,4.6,12.52,12.52,0,0,1-6.14-9.16l2.25-.29a10.16,10.16,0,0,0,5,7.45h0a9.75,9.75,0,0,0,13.46-3.74,10,10,0,0,0,1.16-6.23Zm-6.14-9.17a12.52,12.52,0,0,1,6.14,9.17l-2.25.28a10.16,10.16,0,0,0-5-7.45,9.76,9.76,0,0,0-13.46,3.74,10,10,0,0,0-1.16,6.23l-2.25.29a12.39,12.39,0,0,1,1.42-7.67A12,12,0,0,1,137.46,60.49Z"/><polygon class="cls-1" points="118.8 91.38 121.67 93.03 127.43 82.61 124.55 80.96 118.8 91.38"/><path class="cls-1" d="M115.45,94.86a2.71,2.71,0,0,0,1,3.64,2.6,2.6,0,0,0,3.58-1l5.44-9.84a2.71,2.71,0,0,0-1-3.64,2.6,2.6,0,0,0-3.58,1Z"/><polygon class="cls-57" points="119.08 90.34 121.95 92 125.61 85.37 122.74 83.71 119.08 90.34"/><path class="cls-1" d="M115.45,94.86a2.71,2.71,0,0,0,1,3.64,2.6,2.6,0,0,0,3.58-1l5.44-9.84a2.7,2.7,0,0,0,.13-2.3l-2.87-1.66A2.6,2.6,0,0,0,120.88,85Z"/><ellipse class="cls-58" cx="131.11" cy="66.19" rx="6.57" ry="4.46" transform="translate(-7.04 16.34) rotate(-6.95)"/><path class="cls-59" d="M105.6,81.51l.15-.13-.17.16Z"/><ellipse class="cls-12" cx="113.42" cy="118.95" rx="10.56" ry="0.86"/><path class="cls-46" d="M112.27,81a3.85,3.85,0,0,1-.72-2.81c.16-.79,2.12-1.37,2.8-1.37s1,.92,1,.92l.71,2.11s.35,1.58-.06,1.78a8.28,8.28,0,0,1-1.42.22l-.17,2-2-.48Z"/><polygon class="cls-51" points="112.82 80.48 113.68 81.98 114.46 82.14 114.55 81.87 113.72 81.78 112.91 80.48 112.82 80.48"/><path class="cls-49" d="M109.48,118.39l-1.69.28-.06-.59.1-.67,2.32-.06,1.15.19.26.22S110,118.3,109.48,118.39Z"/><polygon class="cls-60" points="117.49 117.1 115.2 117.77 114.56 109.12 114.81 106.7 113.78 99.03 111.72 106.23 110.05 117.77 107.81 117.77 108.41 110.01 109.02 105.18 109.67 96.57 114.53 96.26 117.34 95.96 117.49 117.1"/><path class="cls-61" d="M121.62,95.37s-1.47-6.5-1.78-6.94a22.82,22.82,0,0,0-2.41-3.82l-.72-.87-.32-.32a.2.2,0,0,0-.08,0v0l-1.34-.1h-1.19l-2.16,0-2.49,1-2.51,6.37L106,96.71l1.83-.15,0-5.7,2-2.24.23,2.72-.44,5.52,8.24-.54-.92-8.73,0,.44,1.75,2.67,1.08,4.86Z"/><polygon class="cls-62" points="115.02 106.29 114.8 108.99 115.28 117.53 114.55 108.86 114.78 106.31 113.78 99.03 114.07 98.02 115.02 106.29"/><polygon class="cls-49" points="119.64 118.95 116.4 118.95 116.16 118.65 115.95 118.95 115.38 118.95 115.38 117.53 116.99 117.24 117.8 118.22 119.64 118.77 119.64 118.95"/><polygon class="cls-46" points="108.41 98.36 108.06 98.55 107.59 98.03 107.48 98.87 108.11 100.19 107.7 100.21 106.91 99.27 106.34 98.33 106.32 97.52 106.44 96.83 107.39 96.65 108.41 98.36"/><polygon class="cls-62" points="109.64 96.94 113.58 96.78 117.26 96.32 109.59 96.65 109.64 96.94"/><polygon class="cls-46" points="119.54 97.4 119.92 97.52 120.28 96.93 120.56 97.74 120.2 99.15 120.6 99.09 121.19 98.03 121.56 97.02 121.43 96.21 121.17 95.55 120.21 95.54 119.54 97.4"/><path class="cls-48" d="M115.65,76.86c-.14-.25-.71-.42-1.09-.47,0,0-.25-1.29-1.23-.7s-1.83,1-2.1,2.07a9.86,9.86,0,0,0,.25,3.46c.32,1.2,2.4.75,2.71.39a3.13,3.13,0,0,0,.26-1.13,2.55,2.55,0,0,1-.35-.41c-.31-.46-.23-.69-.08-.83s.31-.13.59.26l.12-.55c.1-.35.11-.8.32-1C115.49,77.53,115.81,77.15,115.65,76.86Z"/><path class="cls-63" d="M109.13,84.28l-.68.33a33.12,33.12,0,0,0-2.13,6,50.62,50.62,0,0,0-.29,6.13l1.83-.15a33.43,33.43,0,0,1,.59-5.29,6.68,6.68,0,0,1,1.32-2.65l.14,1.65v-.33A15.79,15.79,0,0,0,109.13,84.28Z"/><path class="cls-64" d="M98.73,118.92l-.29-1.17a1.76,1.76,0,0,0,.4-.07,2.63,2.63,0,0,0,.59-.22l.29,1.17a4.84,4.84,0,0,1-.6.22Z"/><path class="cls-27" d="M88.89,104.76l.14-.56c.29.09.58.17.88.24a5.59,5.59,0,0,0,.56.12l-.14.56-.56-.12C89.47,104.93,89.18,104.85,88.89,104.76Z"/><ellipse class="cls-12" cx="94.14" cy="123.19" rx="14.53" ry="1.19"/><path class="cls-46" d="M94.14,83.69a3.81,3.81,0,0,0,.72-2.79c-.16-.79-2.12-1.37-2.79-1.37s-.59.91-.59.91a22.09,22.09,0,0,0-1.34,1.89l.63.44s-.74,1.35-.33,1.55a8.36,8.36,0,0,0,1.43.22l.17,2,2-.64Z"/><path class="cls-48" d="M93,80.46c0-.47-1-.15-1.47-.3-.32-.09,0-.63.39-.81.73-.33,1.79.39,1.79.39S94.81,80.26,95,81a8,8,0,0,1-.43,2.61s.4-.2-.33-.38-.39-1-.78-1-1,.67-1,.67L92,82.73A13.71,13.71,0,0,0,93,80.46Z"/><polygon class="cls-51" points="93.59 83.16 92.74 84.64 91.95 84.81 91.87 84.54 92.69 84.45 93.5 83.16 93.59 83.16"/><polygon class="cls-51" points="90.47 82.05 91.22 80.79 90.14 82.33 90.24 82.44 90.47 82.05"/><polygon class="cls-65" points="88.55 121.14 91 121.85 91.69 113.96 91.42 111.38 92.52 103.17 94.72 110.88 98.68 121.86 101.1 121.86 99.25 114.86 97.61 109.75 96.92 100.36 91.72 100.03 88.72 99.7 88.55 121.14"/><path class="cls-32" d="M81,88.92l4.17,1.53s.18.44.51,0c.21-.3,1.82-2.06,3-3.32l1-1.26h.12l0,0v0l1.43-.1L92,91.86l2.86-6.52,3.38,2.43.91,1.6.23,3.47-2.46-2L96.56,95l.47,5.71-8.81-.58,1-9.13-.72.46-3.07,2.46s-.55,0-.73-.24-4.42-2.51-4.42-2.51Z"/><polygon class="cls-66" points="91.2 110.94 91.43 113.83 90.92 121.61 91.7 113.69 91.45 110.96 92.52 103.17 92.22 102.1 91.2 110.94"/><line class="cls-67" x1="96.07" y1="111.4" x2="96.89" y2="112.29"/><polygon class="cls-49" points="84.7 123.12 89.44 123.12 89.79 122.79 90.1 123.12 90.92 123.12 90.92 121.61 88.57 121.29 87.4 122.34 84.7 122.93 84.7 123.12"/><polygon class="cls-49" points="98.79 123.32 101.15 123.2 101.21 122.57 100.88 121.86 98.79 121.94 98.79 123.32"/><polygon class="cls-3" points="91.97 91.86 94.75 85.42 94.39 85.38 92.52 86.39 91.72 85.55 91.25 85.72 91.97 91.86"/><polygon class="cls-68" points="96.95 100.75 92.74 100.58 88.8 100.09 97 100.45 96.95 100.75"/><line class="cls-69" x1="97.06" y1="89.11" x2="96.89" y2="90.87"/><line class="cls-70" x1="89.42" y1="88.39" x2="89.21" y2="90.96"/><polygon class="cls-46" points="79.32 87.87 79.01 88.17 79.44 88.82 78.48 88.66 77.88 89.11 77.91 89.5 78.73 90 79.62 90.29 80.41 90.38 80.89 89.47 79.32 87.87"/><line class="cls-67" x1="96.41" y1="111.21" x2="97.7" y2="112.53"/><line class="cls-67" x1="89.05" y1="110.96" x2="89.88" y2="111.84"/><polygon class="cls-62" points="89.3 90.49 89.27 90.88 85.42 93.88 89.3 90.49"/><polygon class="cls-62" points="98.74 92.35 98.74 92.35 96.92 90.96 97 90.57 98.98 92.34 98.74 92.35"/><polygon class="cls-32" points="98.96 94.17 96.63 91.76 97.08 86.94 98.36 87.85 101.38 93.46 100.85 100.45 98.97 100.08 98.96 94.17"/><polygon class="cls-46" points="98.42 101.99 98.78 102.18 99.27 101.65 99.38 102.52 98.73 103.88 99.15 103.89 99.96 102.92 100.55 101.96 100.58 101.12 100.45 100.41 99.47 100.23 98.42 101.99"/><path class="cls-3" d="M175.61,26.36a4.1,4.1,0,0,0-3.74-3.54,3.44,3.44,0,0,0-2.35,1c-.51-3.38-3.07-5.95-6.17-5.95s-5.65,2.57-6.16,5.95a3.42,3.42,0,0,0-2.35-1,4.08,4.08,0,0,0-3.73,3.54Z"/><path class="cls-71" d="M105.59,12.36a3.26,3.26,0,0,0-2.38,1.06,6,6,0,0,0-10.82-.5A4.64,4.64,0,0,0,88.69,11a4.86,4.86,0,0,0-4.61,3.79A4.86,4.86,0,0,0,80.27,18H108.5A3.92,3.92,0,0,0,109,16.1,3.59,3.59,0,0,0,105.59,12.36Z"/><path class="cls-3" d="M19.39,29.7a2.53,2.53,0,0,1,2.38-2.55,2.41,2.41,0,0,1,.6.08,2.45,2.45,0,0,1,2.18-2,1.87,1.87,0,0,1,.87.22,3,3,0,0,1,2.75-2.61c1.54,0,2.8,1.51,2.85,3.39a2.26,2.26,0,0,1,1.9-1.16,2.66,2.66,0,0,1,2.36,2.87,3.52,3.52,0,0,1-.06.66h0a1.51,1.51,0,0,1,1.26-.83,1.87,1.87,0,0,1,1.61,1.92Z"/></g></g></g></svg>