<svg xmlns="http://www.w3.org/2000/svg" xmlns:xlink="http://www.w3.org/1999/xlink" viewBox="0 0 185.71 123.52"><defs><style>.cls-1{fill:#f47b24;}.cls-2,.cls-24{fill:#be202f;}.cls-3{fill:#d37a69;}.cls-4{fill:#ef4545;}.cls-5{fill:#1d2f49;}.cls-6{fill:#710f13;}.cls-7{fill:#cae7d7;}.cls-8{fill:#a7cfc9;}.cls-9{fill:#eef7ef;}.cls-10{fill:#adb8c4;}.cls-11{fill:#0f1e37;}.cls-12,.cls-27{fill:#fff;}.cls-13{fill:#f2ddd6;}.cls-14{fill:#1d1b1a;opacity:0.14;}.cls-15{fill:#efbca6;}.cls-16{fill:#d9ae90;}.cls-17,.cls-20{fill:#1c1331;}.cls-18{fill:url(#Dégradé_sans_nom_2);}.cls-19{fill:url(#Dégradé_sans_nom_5);}.cls-20,.cls-27{opacity:0.6;}.cls-21{fill:#004d5e;}.cls-22{fill:url(#Dégradé_sans_nom_71);}.cls-23{fill:#e9e8e8;}.cls-24,.cls-29,.cls-30,.cls-31{fill-rule:evenodd;}.cls-25,.cls-29{fill:#f15722;}.cls-26{fill:#205976;}.cls-28{fill:#e8f6fe;}.cls-30{fill:#f89a1c;}.cls-31{fill:#fdb714;}.cls-32{fill:url(#Dégradé_sans_nom_3);}.cls-33{fill:#d3b095;}.cls-34{fill:url(#Dégradé_sans_nom_3-2);}.cls-35{fill:url(#Dégradé_sans_nom_3-3);}.cls-36{fill:#f3c7a1;}</style><linearGradient id="Dégradé_sans_nom_2" x1="21.45" y1="115.4" x2="21.45" y2="77.93" gradientUnits="userSpaceOnUse"><stop offset="0" stop-color="#042e4b"/><stop offset="1" stop-color="#002838"/></linearGradient><linearGradient id="Dégradé_sans_nom_5" x1="9.47" y1="67.81" x2="37.7" y2="67.81" gradientUnits="userSpaceOnUse"><stop offset="0" stop-color="#f78c23"/><stop offset="1" stop-color="#e56325"/></linearGradient><linearGradient id="Dégradé_sans_nom_71" x1="9.47" y1="68.54" x2="16.49" y2="68.54" gradientUnits="userSpaceOnUse"><stop offset="0.06" stop-color="#c05c28"/><stop offset="1" stop-color="#e56325"/></linearGradient><linearGradient id="Dégradé_sans_nom_3" x1="1221.49" y1="113.74" x2="1221.49" y2="78.75" gradientTransform="translate(-1091.55)" gradientUnits="userSpaceOnUse"><stop offset="0" stop-color="#042e49"/><stop offset="1" stop-color="#002737"/></linearGradient><linearGradient id="Dégradé_sans_nom_3-2" x1="-2944.37" y1="121.56" x2="-2944.37" y2="119.53" gradientTransform="matrix(-1, 0, 0, 1, -2817.47, 0)" xlink:href="#Dégradé_sans_nom_3"/><linearGradient id="Dégradé_sans_nom_3-3" x1="-2954.62" y1="121.38" x2="-2954.62" y2="119.35" gradientTransform="matrix(-1, 0, 0, 1, -2817.47, 0)" xlink:href="#Dégradé_sans_nom_3"/></defs><title>Asset 5</title><g id="Layer_2" data-name="Layer 2"><g id="Layer_1-2" data-name="Layer 1"><g id="Layer_124" data-name="Layer 124"><path class="cls-1" d="M12.73,23.36a3.64,3.64,0,1,1,5.15,0A3.65,3.65,0,0,1,12.73,23.36Z"/><circle class="cls-1" cx="8.34" cy="18.22" r="1.6"/><circle class="cls-1" cx="7.21" cy="29.55" r="7.21" transform="matrix(0.85, -0.53, 0.53, 0.85, -14.44, 8.19)"/><path class="cls-2" d="M135.81,54.84c6.14,15.89-.76,62.36-41.07,59.35-11.57-.87-24.47-12.45-34.09-9.9s-14.22,12.39-32.28,9.3-22.15-19.66-18.21-32S3.64,65.34,4.52,54.81C5.33,45.18,18.86,43,25.14,35.37S34,13,48.08,12.77C63.74,12.51,63,32.21,84,29.18,107.25,25.82,128.07,34.79,135.81,54.84Z"/><path class="cls-3" d="M93.22,68.42c17.77,13.5,13.27,33.24,40.47,28.46,18.84-3.31,34.31-22.53,34.79-41.25.36-14.11-4.6-25.5-17.77-24.42s-23.16-4.82-32.38-9.12C106.72,16.69,86.08,23.53,80.56,37S81.08,59.19,93.22,68.42Z"/><path class="cls-4" d="M120.17,39.33c-2.45,5.67-11.55,6.79-13.79,16.87s8.88,24.19,20.3,22.92S138.28,70.6,146,67.8s11.37-1.86,14.46-7.22c2.86-4.95-2.6-7.52,3.74-14.52,2.65-2.92,8.51-10.68,3.45-17.36-6-7.92-13.28-6.88-16.79-5.06s-5.74,4.47-10.24,2-11.14-3-15.59,2.15C121.12,32.37,122.77,33.3,120.17,39.33Z"/><rect class="cls-5" x="51.52" y="33.3" width="98.73" height="67.03" rx="4.05"/><rect class="cls-6" x="54" y="35.76" width="94.03" height="59.97" rx="0.57"/><polygon class="cls-7" points="103.95 99.22 54.03 99.22 30.64 111.44 103.95 111.44 103.95 99.22"/><polygon class="cls-7" points="98.36 99.19 148.29 99.19 171.68 111.41 98.36 111.41 98.36 99.19"/><polygon class="cls-7" points="98.36 105.77 150.79 105.77 143.52 100.46 98.36 100.46 98.36 105.77"/><polygon class="cls-7" points="98.36 110.5 121.86 110.5 119.96 107.04 98.36 107.04 98.36 110.5"/><polygon class="cls-8" points="98.36 113.1 171.33 113.1 171.68 111.41 98.36 111.41 98.36 113.1"/><path class="cls-9" d="M98.36,114.49h69.33a5.42,5.42,0,0,0,3.64-1.39h-73Z"/><polygon class="cls-7" points="103.95 105.8 51.52 105.8 58.8 100.49 103.95 100.49 103.95 105.8"/><polygon class="cls-10" points="53.25 99.62 148.29 99.62 148.29 99.22 54.7 99.22 53.25 99.62"/><polygon class="cls-7" points="103.95 110.53 80.45 110.53 82.36 107.07 103.95 107.07 103.95 110.53"/><polygon class="cls-10" points="82.17 107.42 120.07 107.42 120.07 107.07 82.5 107.07 82.17 107.42"/><polygon class="cls-8" points="103.95 113.13 30.99 113.13 30.64 111.44 103.95 111.44 103.95 113.13"/><path class="cls-9" d="M104,114.52H34.62A5.38,5.38,0,0,1,31,113.13h73Z"/><rect class="cls-11" x="57.95" y="102.51" width="8.08" height="0.57"/><rect class="cls-11" x="57.95" y="102.8" width="8.08" height="0.29"/><rect class="cls-11" x="63.37" y="102.51" width="4.78" height="0.57"/><rect class="cls-11" x="63.37" y="102.8" width="4.78" height="0.29"/><rect class="cls-11" x="68.83" y="102.51" width="4.78" height="0.57"/><rect class="cls-11" x="68.83" y="102.8" width="4.78" height="0.29"/><rect class="cls-11" x="74.26" y="102.51" width="4.78" height="0.57"/><rect class="cls-11" x="74.26" y="102.8" width="4.78" height="0.29"/><rect class="cls-11" x="79.64" y="102.51" width="4.78" height="0.57"/><rect class="cls-11" x="79.64" y="102.8" width="4.78" height="0.29"/><rect class="cls-11" x="85.06" y="102.51" width="4.78" height="0.57"/><rect class="cls-11" x="85.06" y="102.8" width="4.78" height="0.29"/><rect class="cls-11" x="90.52" y="102.51" width="4.78" height="0.57"/><rect class="cls-11" x="90.52" y="102.8" width="4.78" height="0.29"/><rect class="cls-11" x="95.94" y="102.51" width="4.78" height="0.57"/><rect class="cls-11" x="95.94" y="102.8" width="4.78" height="0.29"/><rect class="cls-11" x="101.26" y="102.5" width="4.78" height="0.57"/><rect class="cls-11" x="101.26" y="102.79" width="4.78" height="0.29"/><rect class="cls-11" x="106.68" y="102.5" width="4.78" height="0.57"/><rect class="cls-11" x="106.68" y="102.79" width="4.78" height="0.29"/><rect class="cls-11" x="112.14" y="102.5" width="4.78" height="0.57"/><rect class="cls-11" x="112.14" y="102.79" width="4.78" height="0.29"/><rect class="cls-11" x="117.56" y="102.5" width="4.78" height="0.57"/><rect class="cls-11" x="117.56" y="102.79" width="4.78" height="0.29"/><rect class="cls-11" x="122.94" y="102.5" width="4.78" height="0.57"/><rect class="cls-11" x="122.94" y="102.79" width="4.78" height="0.29"/><rect class="cls-11" x="128.37" y="102.5" width="4.78" height="0.57"/><rect class="cls-11" x="128.37" y="102.79" width="4.78" height="0.29"/><rect class="cls-11" x="133.83" y="102.5" width="4.78" height="0.57"/><rect class="cls-11" x="133.83" y="102.79" width="4.78" height="0.29"/><rect class="cls-11" x="137.02" y="102.5" width="7.01" height="0.57"/><rect class="cls-11" x="137.02" y="102.79" width="7.01" height="0.29"/><rect class="cls-11" x="56.78" y="103.48" width="8.61" height="0.57"/><rect class="cls-11" x="56.78" y="103.77" width="8.61" height="0.29"/><rect class="cls-11" x="66.03" y="103.48" width="4.78" height="0.57"/><rect class="cls-11" x="66.03" y="103.77" width="4.78" height="0.29"/><rect class="cls-11" x="71.49" y="103.48" width="4.78" height="0.57"/><rect class="cls-11" x="71.49" y="103.77" width="4.78" height="0.29"/><rect class="cls-11" x="76.91" y="103.48" width="4.78" height="0.57"/><rect class="cls-11" x="76.91" y="103.77" width="4.78" height="0.29"/><rect class="cls-11" x="82.3" y="103.48" width="4.78" height="0.57"/><rect class="cls-11" x="82.3" y="103.77" width="4.78" height="0.29"/><rect class="cls-11" x="87.72" y="103.48" width="4.78" height="0.57"/><rect class="cls-11" x="87.72" y="103.77" width="4.78" height="0.29"/><rect class="cls-11" x="93.18" y="103.48" width="4.78" height="0.57"/><rect class="cls-11" x="93.18" y="103.77" width="4.78" height="0.29"/><rect class="cls-11" x="98.6" y="103.48" width="4.78" height="0.57"/><rect class="cls-11" x="98.6" y="103.77" width="4.78" height="0.29"/><rect class="cls-11" x="103.91" y="103.47" width="4.78" height="0.57"/><rect class="cls-11" x="103.91" y="103.76" width="4.78" height="0.29"/><rect class="cls-11" x="109.33" y="103.47" width="4.78" height="0.57"/><rect class="cls-11" x="109.33" y="103.76" width="4.78" height="0.29"/><rect class="cls-11" x="114.79" y="103.47" width="4.78" height="0.57"/><rect class="cls-11" x="114.79" y="103.76" width="4.78" height="0.29"/><rect class="cls-11" x="120.22" y="103.47" width="4.78" height="0.57"/><rect class="cls-11" x="120.22" y="103.76" width="4.78" height="0.29"/><rect class="cls-11" x="125.6" y="103.47" width="4.78" height="0.57"/><rect class="cls-11" x="125.6" y="103.76" width="4.78" height="0.29"/><rect class="cls-11" x="131.02" y="103.47" width="4.78" height="0.57"/><rect class="cls-11" x="131.02" y="103.76" width="4.78" height="0.29"/><rect class="cls-11" x="136.48" y="103.47" width="4.78" height="0.57"/><rect class="cls-11" x="136.48" y="103.76" width="4.78" height="0.29"/><rect class="cls-11" x="140.27" y="103.47" width="5.02" height="0.57"/><rect class="cls-11" x="140.27" y="103.76" width="5.02" height="0.29"/><rect class="cls-11" x="55.94" y="104.52" width="10.36" height="0.57"/><rect class="cls-11" x="55.94" y="104.81" width="10.36" height="0.29"/><rect class="cls-11" x="63.64" y="104.52" width="4.78" height="0.57"/><rect class="cls-11" x="63.64" y="104.81" width="4.78" height="0.29"/><rect class="cls-11" x="69.1" y="104.52" width="4.78" height="0.57"/><rect class="cls-11" x="69.1" y="104.81" width="4.78" height="0.29"/><rect class="cls-11" x="74.52" y="104.52" width="4.78" height="0.57"/><rect class="cls-11" x="74.52" y="104.81" width="4.78" height="0.29"/><rect class="cls-11" x="79.91" y="104.52" width="4.78" height="0.57"/><rect class="cls-11" x="79.91" y="104.81" width="4.78" height="0.29"/><rect class="cls-11" x="85.33" y="104.52" width="4.78" height="0.57"/><rect class="cls-11" x="85.33" y="104.81" width="4.78" height="0.29"/><rect class="cls-11" x="90.79" y="104.52" width="4.78" height="0.57"/><rect class="cls-11" x="90.79" y="104.81" width="4.78" height="0.29"/><rect class="cls-11" x="96.21" y="104.52" width="4.78" height="0.57"/><rect class="cls-11" x="96.21" y="104.81" width="4.78" height="0.29"/><rect class="cls-11" x="101.52" y="104.51" width="4.78" height="0.57"/><rect class="cls-11" x="101.52" y="104.8" width="4.78" height="0.29"/><rect class="cls-11" x="106.95" y="104.51" width="4.78" height="0.57"/><rect class="cls-11" x="106.95" y="104.8" width="4.78" height="0.29"/><rect class="cls-11" x="112.41" y="104.51" width="4.78" height="0.57"/><rect class="cls-11" x="112.41" y="104.8" width="4.78" height="0.29"/><rect class="cls-11" x="117.83" y="104.51" width="4.78" height="0.57"/><rect class="cls-11" x="117.83" y="104.8" width="4.78" height="0.29"/><rect class="cls-11" x="123.21" y="104.51" width="4.78" height="0.57"/><rect class="cls-11" x="123.21" y="104.8" width="4.78" height="0.29"/><rect class="cls-11" x="128.63" y="104.51" width="4.78" height="0.57"/><rect class="cls-11" x="128.63" y="104.8" width="4.78" height="0.29"/><rect class="cls-11" x="134.09" y="104.51" width="4.78" height="0.57"/><rect class="cls-11" x="134.09" y="104.8" width="4.78" height="0.29"/><rect class="cls-11" x="137.28" y="104.51" width="8.82" height="0.57"/><rect class="cls-11" x="137.28" y="104.8" width="8.82" height="0.29"/><rect class="cls-11" x="58.86" y="101.36" width="6.39" height="0.57"/><rect class="cls-11" x="58.86" y="101.65" width="6.39" height="0.29"/><rect class="cls-11" x="65.89" y="101.36" width="4.78" height="0.57"/><rect class="cls-11" x="65.89" y="101.65" width="4.78" height="0.29"/><rect class="cls-11" x="71.35" y="101.36" width="4.78" height="0.57"/><rect class="cls-11" x="71.35" y="101.65" width="4.78" height="0.29"/><rect class="cls-11" x="76.77" y="101.36" width="4.78" height="0.57"/><rect class="cls-11" x="76.77" y="101.65" width="4.78" height="0.29"/><rect class="cls-11" x="82.15" y="101.36" width="4.78" height="0.57"/><rect class="cls-11" x="82.15" y="101.65" width="4.78" height="0.29"/><rect class="cls-11" x="87.58" y="101.36" width="4.78" height="0.57"/><rect class="cls-11" x="87.58" y="101.65" width="4.78" height="0.29"/><rect class="cls-11" x="93.04" y="101.36" width="4.78" height="0.57"/><rect class="cls-11" x="93.04" y="101.65" width="4.78" height="0.29"/><rect class="cls-11" x="98.46" y="101.36" width="4.78" height="0.57"/><rect class="cls-11" x="98.46" y="101.65" width="4.78" height="0.29"/><rect class="cls-11" x="103.77" y="101.35" width="4.78" height="0.57"/><rect class="cls-11" x="103.77" y="101.65" width="4.78" height="0.29"/><rect class="cls-11" x="109.19" y="101.35" width="4.78" height="0.57"/><rect class="cls-11" x="109.19" y="101.65" width="4.78" height="0.29"/><rect class="cls-11" x="114.65" y="101.35" width="4.78" height="0.57"/><rect class="cls-11" x="114.65" y="101.65" width="4.78" height="0.29"/><rect class="cls-11" x="120.07" y="101.35" width="4.78" height="0.57"/><rect class="cls-11" x="120.07" y="101.65" width="4.78" height="0.29"/><rect class="cls-11" x="125.46" y="101.35" width="4.78" height="0.57"/><rect class="cls-11" x="125.46" y="101.65" width="4.78" height="0.29"/><rect class="cls-11" x="130.88" y="101.35" width="4.78" height="0.57"/><rect class="cls-11" x="130.88" y="101.65" width="4.78" height="0.29"/><rect class="cls-11" x="136.34" y="101.35" width="4.78" height="0.57"/><rect class="cls-11" x="136.34" y="101.65" width="4.78" height="0.29"/><rect class="cls-11" x="140.13" y="101.35" width="2.65" height="0.57"/><rect class="cls-11" x="140.13" y="101.65" width="2.65" height="0.29"/><rect class="cls-12" x="64.87" y="48.15" width="3.45" height="1.15"/><rect class="cls-12" x="67.05" y="50.03" width="14.2" height="1.15"/><rect class="cls-12" x="81.25" y="50.03" width="13.69" height="1.15"/><rect class="cls-12" x="94.94" y="50.03" width="15.27" height="1.15"/><rect class="cls-12" x="110.22" y="50.03" width="8.97" height="1.15"/><rect class="cls-12" x="69.35" y="51.92" width="9.19" height="1.15"/><rect class="cls-12" x="78.54" y="51.92" width="18.64" height="1.15"/><rect class="cls-12" x="97.18" y="51.92" width="8.43" height="1.15"/><rect class="cls-12" x="69.35" y="53.81" width="24.18" height="1.15"/><rect class="cls-12" x="93.53" y="53.81" width="12.08" height="1.15"/><rect class="cls-12" x="105.61" y="53.81" width="6.4" height="1.15"/><rect class="cls-12" x="69.35" y="55.66" width="11.36" height="1.15"/><rect class="cls-12" x="80.71" y="55.66" width="18.54" height="1.15"/><rect class="cls-12" x="99.25" y="55.66" width="8.22" height="1.15"/><rect class="cls-12" x="69.07" y="58.29" width="12.75" height="1.15"/><rect class="cls-12" x="81.82" y="58.29" width="13.76" height="1.15"/><rect class="cls-12" x="95.58" y="58.29" width="15.13" height="1.15"/><rect class="cls-12" x="110.71" y="58.29" width="6.31" height="1.15"/><rect class="cls-12" x="102.52" y="63.8" width="15.59" height="1.15"/><rect class="cls-12" x="118.11" y="63.8" width="10.52" height="1.15"/><rect class="cls-12" x="128.63" y="63.8" width="9.82" height="1.15"/><rect class="cls-12" x="71.45" y="60.11" width="13.25" height="1.15"/><rect class="cls-12" x="84.7" y="60.11" width="6.67" height="1.15"/><rect class="cls-12" x="91.37" y="60.11" width="12.43" height="1.15"/><rect class="cls-12" x="103.8" y="60.11" width="22.37" height="1.15"/><rect class="cls-12" x="71.32" y="61.96" width="16.42" height="1.15"/><rect class="cls-12" x="87.74" y="61.96" width="5.79" height="1.15"/><rect class="cls-12" x="93.53" y="61.96" width="13.74" height="1.15"/><rect class="cls-12" x="71.32" y="63.8" width="13.13" height="1.15"/><rect class="cls-12" x="84.45" y="63.8" width="8.95" height="1.15"/><rect class="cls-12" x="93.4" y="63.8" width="9.12" height="1.15"/><rect class="cls-12" x="69.35" y="66.09" width="3.45" height="1.15"/><rect class="cls-12" x="64.78" y="41.95" width="5.88" height="0.97" transform="translate(-1.48 82.42) rotate(-62.09)"/><polygon class="cls-12" points="65.04 40.64 64.32 39.91 62.52 41.72 61.79 42.44 62.52 43.16 64.32 44.97 65.04 44.24 63.24 42.44 65.04 40.64"/><polygon class="cls-12" points="70.53 40.64 71.25 39.91 73.06 41.72 73.78 42.44 73.06 43.16 71.25 44.97 70.53 44.24 72.33 42.44 70.53 40.64"/><rect class="cls-12" x="69.35" y="77.12" width="11.36" height="1.15"/><rect class="cls-12" x="80.71" y="77.12" width="18.54" height="1.15"/><rect class="cls-12" x="99.25" y="77.12" width="8.22" height="1.15"/><rect class="cls-12" x="69.56" y="74.91" width="12.75" height="1.15"/><rect class="cls-12" x="82.31" y="74.91" width="13.76" height="1.15"/><rect class="cls-12" x="96.07" y="74.91" width="15.13" height="1.15"/><rect class="cls-12" x="111.2" y="74.91" width="6.31" height="1.15"/><rect class="cls-12" x="100.55" y="68.57" width="15.59" height="1.15"/><rect class="cls-12" x="69.48" y="72.76" width="13.25" height="1.15"/><rect class="cls-12" x="82.73" y="72.76" width="6.67" height="1.15"/><rect class="cls-12" x="89.4" y="72.76" width="12.43" height="1.15"/><rect class="cls-12" x="101.83" y="72.76" width="22.37" height="1.15"/><rect class="cls-12" x="69.35" y="70.75" width="16.42" height="1.15"/><rect class="cls-12" x="85.77" y="70.75" width="5.79" height="1.15"/><rect class="cls-12" x="91.56" y="70.75" width="13.74" height="1.15"/><rect class="cls-12" x="69.35" y="68.57" width="13.13" height="1.15"/><rect class="cls-12" x="82.48" y="68.57" width="8.95" height="1.15"/><rect class="cls-12" x="91.42" y="68.57" width="9.12" height="1.15"/><rect class="cls-12" x="69.19" y="84.75" width="13.25" height="1.15"/><rect class="cls-12" x="82.44" y="84.75" width="6.67" height="1.15"/><rect class="cls-12" x="89.11" y="84.75" width="12.43" height="1.15"/><rect class="cls-12" x="101.54" y="84.75" width="22.37" height="1.15"/><rect class="cls-12" x="69.06" y="82.74" width="16.42" height="1.15"/><rect class="cls-12" x="85.48" y="82.74" width="5.79" height="1.15"/><rect class="cls-12" x="91.27" y="82.74" width="13.74" height="1.15"/><path class="cls-13" d="M179.44,93.39a3.25,3.25,0,1,1,1.83,4.21A3.25,3.25,0,0,1,179.44,93.39Z"/><circle class="cls-13" cx="182.09" cy="87.97" r="1.43"/><circle class="cls-13" cx="172.41" cy="91.06" r="6.44" transform="translate(-0.9 180.41) rotate(-55.12)"/><path class="cls-1" d="M132.31.52v4h.85V.52a.43.43,0,1,0-.85,0Z"/><path class="cls-1" d="M132.31,17.8a.43.43,0,1,0,.85,0V14.08h-.85Z"/><path class="cls-1" d="M123.58,9.16a.47.47,0,0,0,.51.42h4V8.73h-4A.47.47,0,0,0,123.58,9.16Z"/><path class="cls-1" d="M141.37,8.73h-3.71v.85h3.71a.48.48,0,0,0,.52-.42A.48.48,0,0,0,141.37,8.73Z"/><path class="cls-1" d="M126.32,3.35l2.8,2.79.6-.6-2.79-2.8a.48.48,0,0,0-.67-.06A.48.48,0,0,0,126.32,3.35Z"/><path class="cls-1" d="M138.54,15.57a.44.44,0,1,0,.6-.61l-2.62-2.62-.61.6Z"/><path class="cls-1" d="M126.26,15.63a.48.48,0,0,0,.67-.06l2.79-2.8-.6-.6L126.32,15A.48.48,0,0,0,126.26,15.63Z"/><path class="cls-1" d="M138.54,2.74l-2.63,2.63.61.61,2.62-2.63a.48.48,0,0,0,.07-.67A.48.48,0,0,0,138.54,2.74Z"/><ellipse class="cls-14" cx="22.86" cy="117.44" rx="19.13" ry="1.48"/><path class="cls-15" d="M20.77,52.26a6.37,6.37,0,0,1-1.31-4.82c.29-1.36,3.85-2.36,5.06-2.36s1.77,1.57,1.77,1.57l1.29,3.64s.63,2.71-.11,3.06a16.44,16.44,0,0,1-2.58.37l-.31,3.44-3.69-.83Z"/><polygon class="cls-16" points="21.76 51.34 23.31 53.91 24.73 54.19 24.89 53.72 23.4 53.58 21.93 51.34 21.76 51.34"/><path class="cls-17" d="M15.7,116.47c-1.2.21-3,.47-3,.47l-.11-1,.18-1.15,4.19-.11L19,115l.47.38S16.64,116.31,15.7,116.47Z"/><polygon class="cls-18" points="30.22 114.25 26.07 115.4 24.91 100.54 25.37 96.38 23.51 83.2 19.78 95.58 16.75 115.4 12.69 115.4 13.78 102.06 14.88 93.77 16.05 78.99 24.86 78.45 29.94 77.92 30.22 114.25"/><path class="cls-19" d="M37.7,76.92S35,65.75,34.48,65c-.35-.48-2.4-4.54-4.37-6.57l-1.3-1.48-.58-.55a.37.37,0,0,0-.15-.06v.06l-2.43-.17H23.51l-3.92-.07-4.51,1.71-4.55,11L9.47,79.22l3.3-.25-.09-9.8,3.55-3.84L16.65,70l-.79,9.47,14.92-.93-1.67-15,0,.75,3.18,4.59,2,8.34Z"/><polygon class="cls-20" points="25.75 95.67 25.36 100.32 26.21 115 24.89 100.09 25.32 95.72 23.51 83.2 24.02 81.47 25.75 95.67"/><polygon class="cls-17" points="34.12 117.44 28.25 117.44 27.8 116.91 27.43 117.44 26.4 117.44 26.4 115 29.32 114.5 30.77 116.18 34.12 117.12 34.12 117.44"/><polygon class="cls-15" points="13.78 82.05 13.14 82.38 12.28 81.48 12.09 82.93 13.23 85.21 12.49 85.23 11.06 83.61 10.03 82.01 9.98 80.6 10.21 79.42 11.92 79.12 13.78 82.05"/><polygon class="cls-20" points="16 79.61 23.14 79.34 29.8 78.55 15.91 79.12 16 79.61"/><polygon class="cls-15" points="33.93 80.41 34.63 80.62 35.28 79.6 35.77 80.99 35.12 83.41 35.86 83.32 36.92 81.49 37.6 79.75 37.36 78.36 36.89 77.23 35.15 77.21 33.93 80.41"/><path class="cls-21" d="M26.89,45.12a3.14,3.14,0,0,0-2-.8s-.46-2.22-2.23-1.21-3.32,1.78-3.81,3.55a16.33,16.33,0,0,0,.47,6c.57,2.06,4.34,1.29,4.9.66a5,5,0,0,0,.48-1.93,4,4,0,0,1-.63-.7c-.58-.8-.43-1.2-.15-1.43s.55-.22,1.06.44c.07-.32.14-.64.23-.95.17-.6.19-1.37.57-1.71C26.6,46.27,27.18,45.61,26.89,45.12Z"/><path class="cls-22" d="M15.08,57.86l-1.23.58S10.58,65.16,10,68.69a83.62,83.62,0,0,0-.52,10.53l3.3-.25a54.43,54.43,0,0,1,1.08-9.1,11.18,11.18,0,0,1,2.38-4.54l.26,2.83v-.57C16.49,63.92,16.21,60.55,15.08,57.86Z"/><path class="cls-12" d="M169,77.62a7.47,7.47,0,0,0,1.07-1.51,7.6,7.6,0,0,0-2.63-10.33,7.28,7.28,0,0,0-8.68,1.33,5,5,0,0,0-2.34-2.3,5.32,5.32,0,0,0-7,2.67,5.67,5.67,0,0,0-.43,1.3,5.16,5.16,0,0,0-6,2.93,5.1,5.1,0,0,0,2.14,6.88,4.51,4.51,0,0,0,.87.31l17.21,8.19a4.26,4.26,0,0,0,.85.51,5.59,5.59,0,0,0,5-10Z"/><ellipse class="cls-12" cx="146.46" cy="76.39" rx="7.66" ry="7.79" transform="translate(14.53 175.79) rotate(-64.54)"/><path class="cls-23" d="M149.68,69.64a7.76,7.76,0,0,0-2.43-.71,9.39,9.39,0,0,1,2.24,11,9.23,9.23,0,0,1-4.13,4.24,7.64,7.64,0,0,0,4.32-14.51Z"/><path class="cls-12" d="M149.49,70A7.29,7.29,0,0,1,153,79.71,7.05,7.05,0,0,1,149.86,83a7.41,7.41,0,0,1-3.07.81,9.63,9.63,0,0,0,3.81-9.86,9.94,9.94,0,0,0-2.06-4.27,8.48,8.48,0,0,1,1,.37m.19-.39a7.76,7.76,0,0,0-2.43-.71,9.39,9.39,0,0,1,2.24,11,9.23,9.23,0,0,1-4.13,4.24,7.64,7.64,0,0,0,4.32-14.51Z"/><ellipse class="cls-12" cx="140.05" cy="78.87" rx="5.34" ry="5.43" transform="translate(8.64 171.41) rotate(-64.54)"/><path class="cls-23" d="M142.3,74.15a5.58,5.58,0,0,0-1.7-.49,6.53,6.53,0,0,1,1.56,7.66,6.39,6.39,0,0,1-2.87,3,5.33,5.33,0,0,0,3-10.13Z"/><path class="cls-12" d="M142.17,74.43a5.09,5.09,0,0,1,2.46,6.75,4.91,4.91,0,0,1-2.2,2.28,5.17,5.17,0,0,1-2.15.57,6.72,6.72,0,0,0,2.66-6.88,7,7,0,0,0-1.44-3,5.46,5.46,0,0,1,.67.26m.13-.28a5.58,5.58,0,0,0-1.7-.49,6.53,6.53,0,0,1,1.56,7.66,6.39,6.39,0,0,1-2.87,3,5.33,5.33,0,0,0,3-10.13Z"/><ellipse class="cls-12" cx="168.3" cy="82.96" rx="7.66" ry="7.79" transform="translate(21.05 199.26) rotate(-64.54)"/><path class="cls-23" d="M171.52,76.21a8,8,0,0,0-2.43-.71,9.39,9.39,0,0,1,2.24,11,9.18,9.18,0,0,1-4.13,4.24,7.64,7.64,0,0,0,4.32-14.51Z"/><path class="cls-12" d="M171.33,76.61a7.29,7.29,0,0,1,3.54,9.67,7.1,7.1,0,0,1-3.16,3.27,7.35,7.35,0,0,1-3.08.81,9.48,9.48,0,0,0,3.09-3.69,9.65,9.65,0,0,0,.73-6.17,10,10,0,0,0-2.07-4.27,6.49,6.49,0,0,1,1,.38m.19-.4a8,8,0,0,0-2.43-.71,9.39,9.39,0,0,1,2.24,11,9.18,9.18,0,0,1-4.13,4.24,7.64,7.64,0,0,0,4.32-14.51Z"/><ellipse class="cls-12" cx="152.97" cy="83.93" rx="5.54" ry="5.63" transform="translate(11.43 185.97) rotate(-64.54)"/><path class="cls-23" d="M155.3,79.05a5.62,5.62,0,0,0-1.76-.51,6.76,6.76,0,0,1,1.62,7.93,6.65,6.65,0,0,1-3,3.08,5.53,5.53,0,0,0,3.12-10.5Z"/><path class="cls-12" d="M155.17,79.33a5.28,5.28,0,0,1,2.55,7,5.13,5.13,0,0,1-2.28,2.37,5.39,5.39,0,0,1-2.23.58A7,7,0,0,0,156,82.15a7.29,7.29,0,0,0-1.49-3.09q.35.12.69.27m.13-.28a5.62,5.62,0,0,0-1.76-.51,6.76,6.76,0,0,1,1.62,7.93,6.65,6.65,0,0,1-3,3.08,5.53,5.53,0,0,0,3.12-10.5Z"/><ellipse class="cls-12" cx="170.41" cy="76.17" rx="2.81" ry="2.86" transform="translate(28.39 197.29) rotate(-64.54)"/><path class="cls-23" d="M171.59,73.69a2.94,2.94,0,0,0-.89-.27,3.45,3.45,0,0,1,.82,4A3.36,3.36,0,0,1,170,79a2.8,2.8,0,0,0,1.58-5.33Z"/><path class="cls-12" d="M171.53,73.83a2.7,2.7,0,0,1,1.3,3.56,2.61,2.61,0,0,1-1.17,1.2,2.71,2.71,0,0,1-1.13.3,3.5,3.5,0,0,0,1.14-1.36,3.55,3.55,0,0,0,.27-2.27,3.89,3.89,0,0,0-.76-1.57l.35.14m.06-.14a2.94,2.94,0,0,0-.89-.27,3.45,3.45,0,0,1,.82,4A3.36,3.36,0,0,1,170,79a2.8,2.8,0,0,0,1.58-5.33Z"/><ellipse class="cls-12" cx="165.99" cy="92.12" rx="4.04" ry="4.11" transform="translate(11.46 202.39) rotate(-64.54)"/><path class="cls-23" d="M167.69,88.56a4.33,4.33,0,0,0-1.29-.38,4.9,4.9,0,0,1-1,8,4,4,0,0,0,2.28-7.66Z"/><path class="cls-12" d="M167.59,88.76a3.85,3.85,0,0,1,1.86,5.11,3.71,3.71,0,0,1-1.66,1.73,4.15,4.15,0,0,1-1.63.43,5.12,5.12,0,0,0,2-5.21,5.43,5.43,0,0,0-1.09-2.25,4.29,4.29,0,0,1,.5.19m.1-.2a4.33,4.33,0,0,0-1.29-.38,4.9,4.9,0,0,1-1,8,4,4,0,0,0,2.28-7.66Z"/><ellipse class="cls-12" cx="143.72" cy="88.3" rx="1.98" ry="2.01" transform="translate(2.21 180.11) rotate(-64.54)"/><path class="cls-23" d="M144.55,86.56a2,2,0,0,0-.63-.19,2.42,2.42,0,0,1,.58,2.84,2.36,2.36,0,0,1-1.06,1.1,2,2,0,0,0,1.11-3.75Z"/><path class="cls-12" d="M144.5,86.66a1.88,1.88,0,0,1,.92,2.5,1.83,1.83,0,0,1-.82.85,2.15,2.15,0,0,1-.79.21,2.58,2.58,0,0,0,.8-1,2.51,2.51,0,0,0,.18-1.6,2.56,2.56,0,0,0-.53-1.1,1.73,1.73,0,0,1,.24.1m.05-.1a2,2,0,0,0-.63-.19,2.42,2.42,0,0,1,.58,2.84,2.36,2.36,0,0,1-1.06,1.1,2,2,0,0,0,1.11-3.75Z"/><ellipse class="cls-12" cx="175.94" cy="84.02" rx="4.72" ry="4.8" transform="translate(24.45 206.76) rotate(-64.54)"/><path class="cls-23" d="M177.93,79.86a5.24,5.24,0,0,0-1.5-.44,5.73,5.73,0,0,1-1.16,9.39,4.71,4.71,0,0,0,2.66-9Z"/><path class="cls-12" d="M177.81,80.1a4.5,4.5,0,0,1,2.18,6,4.36,4.36,0,0,1-2,2,4.58,4.58,0,0,1-1.89.5,6,6,0,0,0,2.35-6.08,6.32,6.32,0,0,0-1.27-2.63,4.66,4.66,0,0,1,.58.23m.12-.24a5.24,5.24,0,0,0-1.5-.44,5.73,5.73,0,0,1-1.16,9.39,4.71,4.71,0,0,0,2.66-9Z"/><ellipse class="cls-12" cx="169.88" cy="76.51" rx="4.52" ry="4.6" transform="translate(27.77 197) rotate(-64.54)"/><path class="cls-23" d="M171.78,72.52a4.72,4.72,0,0,0-1.44-.41,5.54,5.54,0,0,1,1.32,6.48,5.43,5.43,0,0,1-2.43,2.51,4.52,4.52,0,0,0,2.55-8.58Z"/><path class="cls-12" d="M171.67,72.76a4.3,4.3,0,0,1,2.08,5.71,4.1,4.1,0,0,1-1.86,1.93,4.44,4.44,0,0,1-1.82.48,5.7,5.7,0,0,0,1.83-2.18,5.64,5.64,0,0,0,.42-3.64,5.74,5.74,0,0,0-1.21-2.52,4.33,4.33,0,0,1,.56.22m.11-.24a4.72,4.72,0,0,0-1.44-.41,5.54,5.54,0,0,1,1.32,6.48,5.43,5.43,0,0,1-2.43,2.51,4.52,4.52,0,0,0,2.55-8.58Z"/><ellipse class="cls-12" cx="144.21" cy="66.23" rx="1.19" ry="1.21" transform="translate(22.42 167.97) rotate(-64.54)"/><path class="cls-23" d="M144.71,65.18a1,1,0,0,0-.38-.11,1.45,1.45,0,0,1-.29,2.37,1.19,1.19,0,0,0,.67-2.26Z"/><path class="cls-12" d="M144.68,65.24a1.14,1.14,0,0,1,.55,1.51,1,1,0,0,1-.49.5,1.15,1.15,0,0,1-.48.13,1.47,1.47,0,0,0,.48-.57,1.52,1.52,0,0,0,.12-1,1.62,1.62,0,0,0-.33-.67l.15.06m0-.06a1,1,0,0,0-.38-.11,1.45,1.45,0,0,1-.29,2.37,1.19,1.19,0,0,0,.67-2.26Z"/><ellipse class="cls-12" cx="173.28" cy="93.4" rx="1.19" ry="1.21" transform="translate(14.47 209.71) rotate(-64.54)"/><path class="cls-23" d="M173.79,92.35a1.16,1.16,0,0,0-.38-.11,1.46,1.46,0,0,1,.35,1.71,1.48,1.48,0,0,1-.65.66,1.19,1.19,0,0,0,.68-2.26Z"/><path class="cls-12" d="M173.76,92.41a1.14,1.14,0,0,1,.55,1.51,1.17,1.17,0,0,1-1,.63,1.49,1.49,0,0,0,.59-1.54,1.51,1.51,0,0,0-.32-.66l.15.06m0-.06a1.16,1.16,0,0,0-.38-.11,1.46,1.46,0,0,1,.35,1.71,1.48,1.48,0,0,1-.65.66,1.19,1.19,0,0,0,.68-2.26Z"/><ellipse class="cls-12" cx="163.6" cy="87.57" rx="3.37" ry="3.43" transform="translate(14.2 197.64) rotate(-64.54)"/><path class="cls-23" d="M165,84.6a3.53,3.53,0,0,0-1.07-.31,4.12,4.12,0,0,1,1,4.83A4.05,4.05,0,0,1,163.12,91,3.37,3.37,0,0,0,165,84.6Z"/><path class="cls-12" d="M164.93,84.77A3.23,3.23,0,0,1,166.49,89a3.15,3.15,0,0,1-1.39,1.43,3.2,3.2,0,0,1-1.35.36,4.2,4.2,0,0,0,1.35-1.63,4.16,4.16,0,0,0,.32-2.71,4.38,4.38,0,0,0-.9-1.88,2.9,2.9,0,0,1,.41.16m.09-.17a3.53,3.53,0,0,0-1.07-.31,4.12,4.12,0,0,1,1,4.83A4.05,4.05,0,0,1,163.12,91,3.37,3.37,0,0,0,165,84.6Z"/><ellipse class="cls-12" cx="159.33" cy="92.77" rx="0.71" ry="0.73" transform="translate(7.08 196.75) rotate(-64.54)"/><path class="cls-23" d="M159.63,92.14a.9.9,0,0,0-.22-.06.87.87,0,0,1,.21,1,.94.94,0,0,1-.39.4.72.72,0,0,0,.4-1.36Z"/><path class="cls-12" d="M159.62,92.18a.68.68,0,0,1,.33.9.75.75,0,0,1-.3.31.72.72,0,0,1-.28.07.84.84,0,0,0,.28-.34.89.89,0,0,0,.07-.58,1,1,0,0,0-.19-.39l.09,0m0,0a.9.9,0,0,0-.22-.06.87.87,0,0,1,.21,1,.94.94,0,0,1-.39.4.72.72,0,0,0,.4-1.36Z"/><ellipse class="cls-12" cx="174.47" cy="69.91" rx="0.71" ry="0.73" transform="translate(36.34 197.38) rotate(-64.54)"/><path class="cls-23" d="M174.77,69.28a1,1,0,0,0-.23-.06.87.87,0,0,1,.21,1,.84.84,0,0,1-.39.4.72.72,0,0,0,.41-1.36Z"/><path class="cls-12" d="M174.75,69.32a.68.68,0,0,1,.33.9.69.69,0,0,1-.3.31.64.64,0,0,1-.28.07,1,1,0,0,0,.29-.34.89.89,0,0,0,.06-.58.84.84,0,0,0-.19-.39l.09,0m0,0a1,1,0,0,0-.23-.06.87.87,0,0,1,.21,1,.84.84,0,0,1-.39.4.72.72,0,0,0,.41-1.36Z"/><path class="cls-24" d="M172.35,52.64l5.76,8.8-.27,8.93-.53,3a27.71,27.71,0,0,0-4.22-6.86A9.68,9.68,0,0,0,167,63.12"/><path class="cls-25" d="M165.59,42.87l-3.1-2.26-4.58,6.47,3.1,2.27a1.27,1.27,0,0,0,1.7-.51l2.95-4.16A1.32,1.32,0,0,0,165.59,42.87Z"/><polygon class="cls-26" points="173.84 21.43 177.77 23.19 177.62 23.52 173.69 21.76 173.84 21.43"/><path class="cls-24" d="M159.91,48.22,150,51.79l-5.15,7.3-1.38,2.7A27.36,27.36,0,0,1,151,58.86a9.67,9.67,0,0,1,6.88.93"/><path class="cls-9" d="M178.14,27.4l-4.4-1.47-4.39-1.47s-4.85,2.26-8.76,14a108,108,0,0,0-4.7,24.14l5,1.68,5,1.68a108.23,108.23,0,0,0,10.79-22.09C180.64,32.13,178.14,27.4,178.14,27.4Z"/><path class="cls-12" d="M169,40.22a3.62,3.62,0,1,0-2.18-4.55A3.59,3.59,0,0,0,169,40.22Z"/><path class="cls-27" d="M173.72,25.91l-4.39-1.47s-4.84,2.27-8.76,14a108.08,108.08,0,0,0-4.7,24.14l5,1.68h0Z"/><path class="cls-4" d="M168.72,41a4.41,4.41,0,1,0-2.67-5.54A4.35,4.35,0,0,0,168.72,41Zm2.37-7.08a3.06,3.06,0,1,1-3.79,2A3,3,0,0,1,171.09,33.89Z"/><path class="cls-12" d="M166.16,48.8a1.75,1.75,0,1,0-1.06-2.19A1.71,1.71,0,0,0,166.16,48.8Z"/><path class="cls-12" d="M166,49.17a2.14,2.14,0,1,0-1.29-2.68A2.11,2.11,0,0,0,166,49.17Zm1.14-3.42a1.47,1.47,0,1,1-1.83.94A1.45,1.45,0,0,1,167.18,45.75Z"/><path class="cls-25" d="M166.75,66.52a.63.63,0,0,1-.79.41l-11-3.61a.63.63,0,0,1-.39-.8h0a.64.64,0,0,1,.79-.41l11,3.61a.64.64,0,0,1,.39.8Z"/><polygon class="cls-2" points="168.36 24.98 177.12 15.88 178.64 28.43 168.36 24.98"/><polygon class="cls-28" points="178.71 29.44 167.66 25.74 168.37 24.99 178.64 28.43 178.71 29.44"/><path class="cls-29" d="M157.09,63.7l7.61,2.85a18.22,18.22,0,0,1-3.95,9.39s-.23-1-.63-2.38a9.14,9.14,0,0,1-3.35,3.64S152.24,73.32,157.09,63.7Z"/><path class="cls-30" d="M157.84,64l6,2.24a11.78,11.78,0,0,1-2.75,7.13,10.53,10.53,0,0,1-.45-2,10,10,0,0,1-3,3.21S154,71.53,157.84,64Z"/><path class="cls-4" d="M165.84,49.84a2.83,2.83,0,1,0-1.71-3.56A2.81,2.81,0,0,0,165.84,49.84Zm1.53-4.54a2,2,0,1,1-2.44,1.25A1.93,1.93,0,0,1,167.37,45.3Z"/><path class="cls-31" d="M159,64.52l3.36,1.26A5,5,0,0,1,161,69.25a5.91,5.91,0,0,1-.3-1,4.63,4.63,0,0,1-1.59,1.52S157.05,68.18,159,64.52Z"/><polygon class="cls-24" points="165.28 51.52 162.52 63.68 160 67.32 160.17 62.89 165.28 51.52"/><ellipse class="cls-14" cx="131.73" cy="121.56" rx="14.1" ry="1.96"/><ellipse class="cls-1" cx="127.22" cy="53.69" rx="9.65" ry="3.12" transform="translate(26.97 148.64) rotate(-66.33)"/><polygon class="cls-32" points="136.54 113.55 133.28 113.74 132.25 101.52 131.32 97.19 130.87 92.89 129.46 97.23 126.11 113.74 123.35 113.74 124.05 102.68 125.02 94.62 125.8 79.79 131.72 79.26 135.14 78.75 136.54 113.55"/><polygon class="cls-33" points="123.3 120.28 128.5 120.85 125.12 118.13 125.12 113.91 123.71 113.91 123.63 117.38 123.3 120.28"/><path class="cls-34" d="M124.71,120.11s2.11.19,3,.31a5.81,5.81,0,0,1,2.76,1.14h-2.85l-2.88-.92v.67h-1.37v-1.78Z"/><polygon class="cls-33" points="133.55 120.1 138.75 120.68 135.37 117.95 135.37 113.73 133.97 113.73 133.88 117.2 133.55 120.1"/><path class="cls-35" d="M135,119.93s2.11.2,3,.31a5.81,5.81,0,0,1,2.76,1.14h-2.85l-2.88-.92v.67h-1.37v-1.78Z"/><path class="cls-9" d="M125.09,63.61l2.64-8.09,3.8,1.77a25,25,0,0,1,2.34,5.8,24.51,24.51,0,0,1,.25,6.77,31.42,31.42,0,0,0,1.55,9.58s-2.6-.16-5,0a31,31,0,0,0-5,.72s2.1-4.93,2.11-8.25S125.09,63.61,125.09,63.61Z"/><path class="cls-9" d="M116,67.6l11.52-11.72a4.48,4.48,0,0,1,1,3.56c-.28,2.32-3.36,4.17-3.36,4.17l-4.79,5.52,2.42,2.32-1.43,3.2s-4.17-3.33-5.09-4.12S116,67.6,116,67.6Z"/><path class="cls-36" d="M129.33,51.18l3-5.91.85,1.45a4.21,4.21,0,0,1,.48.94c.1.32,1.22,1.33.84,1.45a.38.38,0,0,0-.27.31,4,4,0,0,0,.07.85,2.36,2.36,0,0,1-.58,1.73,3.19,3.19,0,0,0-2.86,1.49,4.32,4.32,0,0,0,0,3.42s-5,.94-3.33-1A10.2,10.2,0,0,0,129.33,51.18Z"/><ellipse class="cls-1" cx="130.09" cy="47.85" rx="3.34" ry="2.08" transform="translate(34.08 147.82) rotate(-66.35)"/><polygon class="cls-36" points="125.65 75.26 121.78 73.86 122.36 72.3 126.08 73.79 125.65 75.26"/><ellipse class="cls-36" cx="127.74" cy="74.63" rx="2.65" ry="1.1"/><path class="cls-1" d="M131.12,44.68a6.32,6.32,0,0,1,.61.22A10,10,0,0,0,128,50.31c-.09.31-.17.63-.23.94a4,4,0,0,1-2.21-4.33C126.12,45,128.61,44,131.12,44.68Z"/></g></g></g></svg>