<svg xmlns="http://www.w3.org/2000/svg" xmlns:xlink="http://www.w3.org/1999/xlink" viewBox="0 0 204.63 100.63"><defs><style>.cls-1,.cls-10,.cls-3{fill:#fff;}.cls-1,.cls-31{isolation:isolate;}.cls-2{fill:#ee3424;}.cls-4{fill:#fdb61c;}.cls-5{fill:#ffedc3;}.cls-6{fill:#e7b768;}.cls-7{fill:#ffe49f;}.cls-8{fill:#fad567;}.cls-9{fill:#f26122;}.cls-10{fill-rule:evenodd;}.cls-11{fill:#ef4545;}.cls-12{fill:#be202f;}.cls-13{fill:#eccbc0;}.cls-14{fill:#2d6f84;}.cls-15{fill:#f47b24;}.cls-16{fill:#a1a2a5;}.cls-17{fill:#fcb020;}.cls-18,.cls-19{fill:#fff7e0;}.cls-18,.cls-39{opacity:0.6;}.cls-19{opacity:0.32;}.cls-20{fill:url(#Dégradé_sans_nom_15);}.cls-21{fill:#006782;}.cls-22{fill:#5583a3;}.cls-23{fill:#006491;}.cls-23,.cls-29{opacity:0.5;}.cls-24{fill:#004c5e;}.cls-25{fill:#005974;}.cls-26{fill:#008ba6;}.cls-26,.cls-27{opacity:0.7;}.cls-28,.cls-29{fill:#69c0dc;}.cls-30{fill:#00547d;}.cls-32{fill:#fdfdfe;}.cls-33{fill:#d37a69;}.cls-34{fill:#f0bea7;}.cls-35{fill:#004d5e;}.cls-36{fill:#daaf91;}.cls-37{fill:url(#Dégradé_sans_nom_2);}.cls-38{fill:#053c5c;}.cls-39,.cls-41{fill:#1c1331;}.cls-40{fill:none;stroke:#43286c;stroke-miterlimit:10;}.cls-42{fill:url(#Dégradé_sans_nom_2-2);}.cls-43{fill:url(#Dégradé_sans_nom_2-3);}.cls-44{fill:#f79136;}</style><linearGradient id="Dégradé_sans_nom_15" x1="-356.88" y1="-1220.63" x2="-328.47" y2="-1192.23" gradientTransform="translate(-1039.77 392.46) rotate(90)" gradientUnits="userSpaceOnUse"><stop offset="0" stop-color="#fdf6b1"/><stop offset="1" stop-color="#ffc93d" stop-opacity="0"/></linearGradient><linearGradient id="Dégradé_sans_nom_2" x1="-3884.28" y1="97.53" x2="-3884.28" y2="63.44" gradientTransform="matrix(-1, 0, 0, 1, -3812.29, 0)" gradientUnits="userSpaceOnUse"><stop offset="0" stop-color="#042e4b"/><stop offset="1" stop-color="#002838"/></linearGradient><linearGradient id="Dégradé_sans_nom_2-2" x1="-3886.62" y1="52.84" x2="-3886.27" y2="52.84" gradientTransform="matrix(-0.07, -1, -1, 0.07, -147.02, -3827.67)" xlink:href="#Dégradé_sans_nom_2"/><linearGradient id="Dégradé_sans_nom_2-3" x1="-3876.17" y1="51.16" x2="-3875.77" y2="51.16" gradientTransform="matrix(-0.08, -1, -1, 0.08, -190.1, -3816.83)" xlink:href="#Dégradé_sans_nom_2"/></defs><title>Asset 6</title><g id="Layer_2" data-name="Layer 2"><g id="Layer_1-2" data-name="Layer 1"><g id="Layer_116" data-name="Layer 116"><rect class="cls-1" x="27.4" y="18.5" width="37.28" height="62.15"/><path class="cls-2" d="M62.57,14.28H29.72a3.24,3.24,0,0,0-3.29,3.17V79a3.24,3.24,0,0,0,3.29,3.17H62.57A3.23,3.23,0,0,0,65.85,79V17.45A3.23,3.23,0,0,0,62.57,14.28Zm1.64,55.17H28.08V23.79H64.21Z"/><rect class="cls-3" x="39.08" y="17.51" width="15.11" height="1.9"/><rect class="cls-3" x="41.05" y="75.16" width="9.86" height="3.81"/><path class="cls-4" d="M78.08,9.12a5.67,5.67,0,0,0-1.18.94L75,9.55,74,11.47l1.45,1.32a5.8,5.8,0,0,0-.17,1.5l-1.7,1,.62,2.1,2-.09a5.61,5.61,0,0,0,.94,1.17l-.51,1.9,1.92,1L79.79,20a6.27,6.27,0,0,0,1.5.16l1,1.7,2.1-.62-.09-2a5.61,5.61,0,0,0,1.17-.94l1.9.51,1.05-1.92L87,15.56a6.27,6.27,0,0,0,.16-1.5l1.7-1L88.2,11l-2,.09a6,6,0,0,0-.95-1.17L85.8,8,83.88,7,82.56,8.4a6.21,6.21,0,0,0-1.5-.16l-1-1.7L78,7.16Zm2.49,3a2.15,2.15,0,1,1-1.46,2.67A2.15,2.15,0,0,1,80.57,12.11Z"/><path class="cls-4" d="M82.89,13.68a1.78,1.78,0,0,1-3.42,1,1.78,1.78,0,0,1,3.42-1Z"/><path class="cls-4" d="M80.51,11.88a2.39,2.39,0,1,0,3,1.62A2.4,2.4,0,0,0,80.51,11.88Zm.17.59a1.78,1.78,0,1,1-1.21,2.21A1.78,1.78,0,0,1,80.68,12.47Z"/><path class="cls-4" d="M80.07,10.38A4,4,0,1,0,85,13.07,4,4,0,0,0,80.07,10.38Zm.23.79a3.13,3.13,0,1,1-2.13,3.89A3.12,3.12,0,0,1,80.3,11.17Z"/><path class="cls-4" d="M80.3,11.17a3.13,3.13,0,1,0,3.88,2.13A3.13,3.13,0,0,0,80.3,11.17Zm.21.71a2.39,2.39,0,1,1-1.63,3A2.39,2.39,0,0,1,80.51,11.88Z"/><path class="cls-4" d="M70.22,1.75a3.33,3.33,0,0,0-.77.62l-.85-.22-.81,1.47.65.59a3.63,3.63,0,0,0-.11,1l-.76.44L68,7.25l.88,0a4.19,4.19,0,0,0,.62.77l-.22.85,1.47.8.6-.64a4.46,4.46,0,0,0,1,.11l.44.75,1.61-.47,0-.88a3.81,3.81,0,0,0,.77-.62l.85.23.8-1.47-.64-.6a4.6,4.6,0,0,0,.11-1L77,4.62,76.56,3l-.87,0a4,4,0,0,0-.62-.77l.22-.86L73.82.62l-.6.65a3.6,3.6,0,0,0-1-.11L71.79.4,70.18.87ZM72,4.1a1.07,1.07,0,1,1-.73,1.33A1.08,1.08,0,0,1,72,4.1Z"/><path class="cls-4" d="M71.74,3.21a2,2,0,1,1-1.36,2.48A2,2,0,0,1,71.74,3.21Zm.2.68a1.29,1.29,0,1,0,1.6.88A1.3,1.3,0,0,0,71.94,3.89Z"/><path class="cls-4" d="M72,4.05a1.13,1.13,0,0,1,1.4.76,1.15,1.15,0,0,1-.77,1.41A1.13,1.13,0,0,1,72,4.05Zm0,.11a1,1,0,1,0,1.25.69A1,1,0,0,0,72,4.16Z"/><polygon class="cls-5" points="68.38 83.64 78.61 76.17 72.39 49.18 62.16 56.65 68.38 83.64"/><polygon class="cls-6" points="67.56 83.83 57.17 81.11 50.95 54.12 61.34 56.84 67.56 83.83"/><polygon class="cls-7" points="46.29 89 56.52 81.53 50.3 54.53 40.07 62 46.29 89"/><path class="cls-8" d="M74.21,46.61l0-.18-.09.06a1.32,1.32,0,0,0-.33-.18,1.37,1.37,0,0,0-1.27.17L61.29,54.75,51.2,51.25a1.37,1.37,0,0,0-1.24.19l-.3.22h0v0L37.78,60.43a1.34,1.34,0,0,0-.51,1.38l6.65,28.88a1.34,1.34,0,0,0,.66.86l0,.14.1-.07,0,0A1.37,1.37,0,0,0,46,91.47L57.64,82.9,66.53,86a1.35,1.35,0,0,0,.76.72,1.45,1.45,0,0,0,.77,0,1.37,1.37,0,0,0,.49-.23l.3-.22h0v0l11.86-8.76a1.34,1.34,0,0,0,.51-1.38L74.59,47.26A1.34,1.34,0,0,0,74.21,46.61ZM57.85,80.13a1.5,1.5,0,0,0-.29-.06l-6-25.83,9.21,3.19h0l5.94,25.78ZM40.09,62.07,50.3,54.53l6,26L46.08,88.09Zm22.33-4.81,10-7.4,6,26-10,7.4Z"/><path class="cls-9" d="M58.17,38.82a8.32,8.32,0,0,0-6.38,9.88A10.84,10.84,0,0,0,53,51.33c.17.27.47.68.66.93L64,65.09c.2.24.42.19.49-.12l3.68-16a10.87,10.87,0,0,0,.18-1.12,10.69,10.69,0,0,0-.08-2.89A8.32,8.32,0,0,0,58.17,38.82ZM60.8,50.26A3.55,3.55,0,1,1,63.56,46,3.6,3.6,0,0,1,60.8,50.26Z"/><circle class="cls-3" cx="59.9" cy="46.35" r="4.05"/><path class="cls-10" d="M15.33,32.85h0V25.19a10,10,0,0,1,6,9A9.88,9.88,0,0,1,17,42.35l1.51,4.16L15.33,44V36h0a1.59,1.59,0,0,0,0-3.16Zm0,0a1.59,1.59,0,0,0,0,3.16v8l-.55-.45a11.23,11.23,0,0,1-4.12.78h0V36h0a1.59,1.59,0,0,0,0-3.16h0V24.18h0a11.12,11.12,0,0,1,4.67,1Zm-4.67-8.67v8.67a1.59,1.59,0,0,0,0,3.16v8.28a11.1,11.1,0,0,1-4.66-1V36a1.59,1.59,0,0,0,0-3.16V25.19A11.1,11.1,0,0,1,10.66,24.18ZM6,25.19v7.66A1.59,1.59,0,0,0,6,36v7.27A9.82,9.82,0,0,1,6,25.19Z"/><circle class="cls-2" cx="16.79" cy="26.37" r="5.73"/><path class="cls-3" d="M17.74,28.78h-1V25.71c0-.33,0-.72,0-1.15l-.19.22c-.1.12-.31.34-.62.65l-.54-.59,1.39-1.29h.87Z"/><path class="cls-11" d="M111.76,18c-1.87,4.31-8.8,5.17-10.5,12.85S108,49.23,116.72,48.27s8.84-6.49,14.75-8.62,8.66-1.43,11-5.5c2.18-3.78-2-5.74,2.85-11.06,2-2.23,6.48-8.14,2.63-13.23-4.56-6-10.12-5.24-12.79-3.86s-4.37,3.41-7.8,1.53-8.48-2.28-11.88,1.64C112.49,12.65,113.74,13.37,111.76,18Z"/><path class="cls-12" d="M81.35,62.13c16.94,13.71,12,32.83,38.64,29,18.48-2.68,34.14-21,35.17-39.22.77-13.77-3.73-25-16.61-24.37s-22.46-5.39-31.33-9.85c-11.17-5.62-31.52.45-37.29,13.38S69.77,52.77,81.35,62.13Z"/><path class="cls-13" d="M202.92,47.92c5.32,13.5-.57,52.94-35.38,50.34-10-.75-21.13-10.6-29.44-8.45s-12.26,10.5-27.85,7.86S91.11,81,94.49,70.45s-5.64-13.77-4.9-22.71c.68-8.18,12.37-10.05,17.78-16.48s7.64-19,19.78-19.16c13.51-.2,12.91,16.52,31,14C178.23,23.25,196.22,30.89,202.92,47.92Z"/><path class="cls-2" d="M128.59,93.25a2,2,0,0,1-2.06,2l-44.86.49a2,2,0,0,1-2.09-1.95l-.64-58.56a2,2,0,0,1,2-2l44.86-.49a2,2,0,0,1,2.1,2l.64,58.55Z"/><path class="cls-3" d="M125.46,91.18a.48.48,0,0,1-.48.47l-41.83.45a.47.47,0,0,1-.49-.45l-.59-54.79a.46.46,0,0,1,.47-.46l41.83-.46a.48.48,0,0,1,.49.45Z"/><path class="cls-14" d="M107.63,31.9a4.22,4.22,0,0,0,.31-1.6,4.57,4.57,0,0,0-9.12.1,4.1,4.1,0,0,0,.34,1.6l-9.28.1L90,39l26.72-.29-.08-6.86Zm-4.21.36a2.06,2.06,0,1,1,2.13-2.08A2.11,2.11,0,0,1,103.42,32.26Z"/><path class="cls-15" d="M88.81,47l0,6.64,6.64,0L95.44,47Zm.85,5.83,0-5,5,0,0,5Z"/><rect class="cls-16" x="97.06" y="47.94" width="8.19" height="1" transform="translate(-0.38 0.79) rotate(-0.45)"/><rect class="cls-16" x="97.08" y="50.11" width="22.45" height="0.77" transform="translate(-0.39 0.85) rotate(-0.45)"/><rect class="cls-16" x="108.77" y="50.09" width="4.32" height="0.77" transform="translate(-0.39 0.87) rotate(-0.45)"/><rect class="cls-16" x="113.86" y="50.05" width="5.67" height="0.77" transform="translate(-0.39 0.91) rotate(-0.45)"/><rect class="cls-16" x="97.09" y="51.92" width="17.79" height="0.77" transform="translate(-0.41 0.83) rotate(-0.45)"/><rect class="cls-16" x="108.17" y="51.87" width="8.39" height="0.77" transform="translate(-0.4 0.88) rotate(-0.45)"/><polygon class="cls-15" points="94.07 49.41 93.51 48.87 91.95 50.45 90.82 49.33 90.27 49.89 91.41 51.01 91.4 51.01 91.96 51.56 91.96 51.55 91.97 51.56 92.52 51 92.51 51 94.07 49.41"/><path class="cls-15" d="M88.88,55.74l.05,6.63,6.63,0,0-6.64Zm.85,5.82,0-5,5,0,0,5Z"/><rect class="cls-16" x="97.13" y="56.66" width="8.19" height="1" transform="translate(-0.44 0.79) rotate(-0.45)"/><rect class="cls-16" x="97.15" y="58.84" width="22.45" height="0.77" transform="translate(-0.46 0.85) rotate(-0.45)"/><rect class="cls-16" x="108.84" y="58.82" width="4.32" height="0.77" transform="translate(-0.46 0.87) rotate(-0.45)"/><rect class="cls-16" x="113.93" y="58.77" width="5.67" height="0.77" transform="translate(-0.46 0.91) rotate(-0.45)"/><rect class="cls-16" x="97.16" y="60.64" width="17.79" height="0.77" transform="translate(-0.47 0.83) rotate(-0.45)"/><rect class="cls-16" x="108.24" y="60.6" width="8.39" height="0.77" transform="translate(-0.47 0.88) rotate(-0.45)"/><polygon class="cls-15" points="94.14 58.14 93.58 57.59 92.02 59.17 90.89 58.05 90.34 58.61 91.47 59.73 91.47 59.73 92.03 60.28 92.03 60.28 92.04 60.28 92.59 59.72 92.58 59.72 94.14 58.14"/><path class="cls-15" d="M89,64.68l0,6.63,6.63,0,0-6.63Zm.85,5.82,0-5,5,0,0,5Z"/><rect class="cls-16" x="97.2" y="65.61" width="8.19" height="1" transform="translate(-0.51 0.79) rotate(-0.45)"/><rect class="cls-16" x="97.22" y="67.78" width="22.45" height="0.77" transform="translate(-0.53 0.85) rotate(-0.45)"/><rect class="cls-16" x="108.91" y="67.76" width="4.32" height="0.77" transform="translate(-0.53 0.87) rotate(-0.45)"/><rect class="cls-16" x="114" y="67.71" width="5.67" height="0.77" transform="translate(-0.53 0.91) rotate(-0.45)"/><rect class="cls-16" x="97.23" y="69.59" width="17.79" height="0.77" transform="translate(-0.54 0.83) rotate(-0.45)"/><rect class="cls-16" x="108.31" y="69.54" width="8.39" height="0.77" transform="translate(-0.54 0.88) rotate(-0.45)"/><polygon class="cls-15" points="94.21 67.08 93.65 66.53 92.09 68.11 90.96 67 90.41 67.55 91.54 68.67 91.54 68.68 92.09 69.23 92.1 69.22 92.11 69.23 92.66 68.67 92.65 68.66 94.21 67.08"/><path class="cls-15" d="M89.07,73.84l.05,6.63,6.64,0-.06-6.64Zm.85,5.82,0-5,5,0,0,5Z"/><rect class="cls-16" x="97.32" y="74.76" width="8.19" height="1" transform="translate(-0.58 0.79) rotate(-0.45)"/><rect class="cls-16" x="97.34" y="76.94" width="22.45" height="0.77" transform="translate(-0.6 0.85) rotate(-0.45)"/><rect class="cls-16" x="109.03" y="76.92" width="4.32" height="0.77" transform="translate(-0.6 0.87) rotate(-0.45)"/><rect class="cls-16" x="114.12" y="76.87" width="5.67" height="0.77" transform="translate(-0.6 0.92) rotate(-0.45)"/><rect class="cls-16" x="97.35" y="78.75" width="17.79" height="0.77" transform="translate(-0.61 0.83) rotate(-0.45)"/><rect class="cls-16" x="108.43" y="78.7" width="8.39" height="0.77" transform="translate(-0.61 0.88) rotate(-0.45)"/><polygon class="cls-15" points="94.33 76.24 93.77 75.69 92.21 77.27 91.08 76.15 90.53 76.71 91.67 77.83 91.66 77.83 92.22 78.38 92.22 78.38 92.23 78.38 92.78 77.83 92.77 77.82 94.33 76.24"/><path class="cls-17" d="M186.64,37.73a28.18,28.18,0,0,0-50.49,13.63c-.29,2.46-.06,7.22-3,9.65-2.41,2-4.32,3.27-5.95,4.67-3.6,3.06-3.8,4.2-3.8,4.2a50.56,50.56,0,0,0,6.32,10.75,50.57,50.57,0,0,0,8.59,9s1.15.12,5.09-2.49c1.79-1.19,3.55-2.67,6.12-4.44,3.15-2.17,7.67-.63,10.11-.23a28.18,28.18,0,0,0,27-44.78Z"/><path class="cls-18" d="M177,31.26a26.7,26.7,0,0,1-17.09,49.79c-.39-.06-.85-.16-1.35-.27-2.67-.56-6.7-1.42-9.84.74-1.32.91-2.43,1.75-3.41,2.48s-1.84,1.38-2.69,1.94a18.85,18.85,0,0,1-3.88,2.14A54,54,0,0,1,125,70a18.57,18.57,0,0,1,3.13-3.15c.78-.66,1.62-1.3,2.6-2s2.1-1.59,3.33-2.6c2.94-2.42,3.23-6.53,3.43-9.26,0-.5.06-1,.11-1.36A26.7,26.7,0,0,1,177,31.26m.71-1.3a28.19,28.19,0,0,0-41.51,21.4c-.29,2.46-.06,7.22-3,9.65-2.41,2-4.32,3.27-5.95,4.67-3.6,3.06-3.8,4.2-3.8,4.2a50.56,50.56,0,0,0,6.32,10.75,50.57,50.57,0,0,0,8.59,9s1.15.12,5.09-2.49c1.79-1.19,3.55-2.67,6.12-4.44,3.15-2.17,7.67-.63,10.11-.23a28.19,28.19,0,0,0,18-52.55Z"/><path class="cls-19" d="M177.66,30a28.19,28.19,0,0,1-18,52.55c-2.44-.4-7-1.94-10.11.23-2.57,1.77-4.33,3.25-6.12,4.44-3.94,2.61-5.09,2.49-5.09,2.49a50.57,50.57,0,0,1-8.59-9,50.56,50.56,0,0,1-6.32-10.75s.2-1.14,3.8-4.2c1.63-1.4,3.54-2.68,5.95-4.67,3-2.43,2.72-7.19,3-9.65A28.19,28.19,0,0,1,177.66,30m.71-1.3a29.66,29.66,0,0,0-43.69,22.53c-.05.45-.09,1-.13,1.5-.17,2.35-.39,5.57-2.35,7.18-1.19,1-2.28,1.8-3.23,2.52s-1.9,1.44-2.74,2.16c-2.58,2.2-4.11,4-4.3,5.06l-.08.42.16.39a51.62,51.62,0,0,0,6.52,11.1,52.1,52.1,0,0,0,8.87,9.33l.33.25.42.05c1.08.11,3.23-.87,6-2.74.93-.61,1.85-1.3,2.83-2s2.05-1.54,3.32-2.41c2.09-1.44,5.24-.77,7.55-.28.53.11,1,.22,1.48.29a29.67,29.67,0,0,0,19-55.31Z"/><ellipse class="cls-20" cx="166.66" cy="49.79" rx="18.86" ry="21.24" transform="matrix(0.8, -0.6, 0.6, 0.8, 3.59, 110.31)"/><ellipse class="cls-21" cx="131.87" cy="79" rx="1.81" ry="10.37" transform="translate(-20.99 95.26) rotate(-36.99)"/><path class="cls-22" d="M138.1,89.55a48.4,48.4,0,0,1-8.41-8.8,48.7,48.7,0,0,1-6.15-10.52s.06-.4-.11-.23c-1.46,1.49-1.58,2.07-1.58,2.07a44.46,44.46,0,0,0,5.86,10.13,44.55,44.55,0,0,0,8.12,8.43,5.94,5.94,0,0,0,2.46-1C138.41,89.59,138.1,89.55,138.1,89.55Z"/><path class="cls-23" d="M114.18,95l-2.67-3.54c-2.66-3.54,1.54-4.2-1.44-9h0c1.87-1.4,5.58.34,8.24,3.87L121,89.89c2.67,3.54,3.32,7.58,1.45,9h0C119,95.1,116.85,98.55,114.18,95Z"/><path class="cls-24" d="M134.38,89.92a39.29,39.29,0,0,1-7-7.43,44.26,44.26,0,0,1-5.26-8.72c-.21-.5-3.3.41-3.3.41a55,55,0,0,0,6.09,10.13,54.64,54.64,0,0,0,8,8.59S134.64,90.13,134.38,89.92Z"/><path class="cls-25" d="M134.78,89.39a38.62,38.62,0,0,1-6.89-7.29,42.28,42.28,0,0,1-5.15-8.58c-.21-.49-3.29.44-3.29.44a53.45,53.45,0,0,0,6,10,52.55,52.55,0,0,0,7.85,8.42S135,89.58,134.78,89.39Z"/><path class="cls-26" d="M131.63,87.82a56.73,56.73,0,0,1-4.46-5.22,55.42,55.42,0,0,1-5.59-9.15,19,19,0,0,0-2.11.51v0a54,54,0,0,0,6,9.93c.6.8,1.2,1.54,1.78,2.24A10.5,10.5,0,0,0,131.63,87.82Z"/><g class="cls-27"><path class="cls-28" d="M132.09,91.3c.74.68,1.18,1,1.18,1s.66-1,1.11-1.87c-.26-.23-.59-.53-1-.9A6,6,0,0,1,132.09,91.3Z"/><path class="cls-28" d="M122.16,74.62c-.24-.46-.43-.86-.58-1.17a21.2,21.2,0,0,0-2.12.51s.22.53.67,1.43A5.69,5.69,0,0,1,122.16,74.62Z"/></g><path class="cls-29" d="M125.41,82.31a14.16,14.16,0,0,0,5.28,4.54,52.92,52.92,0,0,1-3.46-4.16,56.43,56.43,0,0,1-4.77-7.51C122.42,77.05,123.48,79.75,125.41,82.31Z"/><path class="cls-25" d="M110.66,89.91a4.68,4.68,0,0,0,.83,1.56L114.16,95a4.93,4.93,0,0,0,1.29,1.24c-.66-1.08-1.41-2.19-2.25-3.3A38.34,38.34,0,0,0,110.66,89.91Z"/><path class="cls-24" d="M131.58,92.22a39.29,39.29,0,0,1-7-7.43,43.51,43.51,0,0,1-5.25-8.72c-.22-.5-3.31.41-3.31.41a55.35,55.35,0,0,0,6.09,10.13,54.64,54.64,0,0,0,8,8.59S131.84,92.43,131.58,92.22Z"/><path class="cls-25" d="M132,91.69a38.2,38.2,0,0,1-6.9-7.29A42.07,42.07,0,0,1,120,75.82c-.21-.49-3.29.44-3.29.44a54.85,54.85,0,0,0,13.81,18.38S132.25,91.88,132,91.69Z"/><path class="cls-26" d="M128.84,90.12a55.17,55.17,0,0,1-4.47-5.22,56.16,56.16,0,0,1-5.59-9.15,20.33,20.33,0,0,0-2.11.51v0a53.75,53.75,0,0,0,6,9.93c.6.8,1.19,1.54,1.78,2.24A10.58,10.58,0,0,0,128.84,90.12Z"/><g class="cls-27"><path class="cls-28" d="M129.29,93.59c.74.69,1.19,1,1.19,1s.65-1,1.11-1.87c-.26-.23-.6-.53-1-.9A5.82,5.82,0,0,1,129.29,93.59Z"/><path class="cls-28" d="M119.36,76.92c-.24-.46-.43-.86-.58-1.17a21.2,21.2,0,0,0-2.12.51s.23.53.68,1.43A5.64,5.64,0,0,1,119.36,76.92Z"/></g><path class="cls-29" d="M122.62,84.61a14.16,14.16,0,0,0,5.27,4.54c-1.08-1.17-2.26-2.57-3.46-4.16a55.17,55.17,0,0,1-4.76-7.51C119.63,79.35,120.69,82.05,122.62,84.61Z"/><path class="cls-24" d="M128.63,94.48a39.48,39.48,0,0,1-7-7.44,43.51,43.51,0,0,1-5.25-8.72c-.22-.49-3.31.42-3.31.42a56.89,56.89,0,0,0,14.07,18.72S128.89,94.68,128.63,94.48Z"/><path class="cls-25" d="M129,93.94a38.62,38.62,0,0,1-6.89-7.29A42.31,42.31,0,0,1,117,78.08c-.21-.49-3.28.44-3.28.44a52.79,52.79,0,0,0,6,10,53.46,53.46,0,0,0,7.85,8.43S129.29,94.14,129,93.94Z"/><path class="cls-26" d="M125.88,92.38a59.55,59.55,0,0,1-4.46-5.22A55.85,55.85,0,0,1,115.83,78a21.37,21.37,0,0,0-2.11.5v0a53.92,53.92,0,0,0,6,9.94c.6.79,1.2,1.54,1.78,2.23A10.52,10.52,0,0,0,125.88,92.38Z"/><g class="cls-27"><path class="cls-28" d="M126.34,95.85c.74.68,1.18,1,1.18,1s.66-1,1.12-1.86c-.27-.23-.6-.54-1-.91A5.86,5.86,0,0,1,126.34,95.85Z"/><path class="cls-28" d="M116.41,79.17c-.24-.46-.43-.85-.58-1.16a19.56,19.56,0,0,0-2.12.5s.23.53.67,1.43A6,6,0,0,1,116.41,79.17Z"/></g><path class="cls-29" d="M119.66,86.87a14.35,14.35,0,0,0,5.28,4.54c-1.08-1.18-2.27-2.57-3.46-4.16a56.43,56.43,0,0,1-4.77-7.51C116.67,81.61,117.73,84.31,119.66,86.87Z"/><path class="cls-24" d="M125.63,96.74a39.84,39.84,0,0,1-7-7.44,43.51,43.51,0,0,1-5.25-8.72c-.22-.5-3.31.41-3.31.41a56.89,56.89,0,0,0,14.07,18.72S125.89,96.94,125.63,96.74Z"/><path class="cls-25" d="M126,96.2a38.2,38.2,0,0,1-6.9-7.29A42.09,42.09,0,0,1,114,80.34c-.21-.49-3.29.43-3.29.43a54.85,54.85,0,0,0,13.81,18.38S126.3,96.4,126,96.2Z"/><path class="cls-26" d="M122.89,94.63a54.79,54.79,0,0,1-10.06-14.36,18.69,18.69,0,0,0-2.11.5v0a53.39,53.39,0,0,0,6,9.93c.6.8,1.19,1.55,1.78,2.24A10.32,10.32,0,0,0,122.89,94.63Z"/><g class="cls-27"><path class="cls-28" d="M123.34,98.11c.74.68,1.19,1,1.19,1s.65-1,1.11-1.86c-.26-.24-.6-.54-1-.91A5.86,5.86,0,0,1,123.34,98.11Z"/><path class="cls-28" d="M113.41,81.43c-.24-.46-.43-.86-.58-1.17a21.2,21.2,0,0,0-2.12.51s.23.53.68,1.43A5.84,5.84,0,0,1,113.41,81.43Z"/></g><path class="cls-29" d="M116.67,89.13a14.25,14.25,0,0,0,5.27,4.54c-1.08-1.18-2.26-2.58-3.46-4.16A55.17,55.17,0,0,1,113.72,82C113.68,83.86,114.74,86.57,116.67,89.13Z"/><path class="cls-30" d="M161.81,67.27l.71.94A31.94,31.94,0,0,1,151.89,73a11,11,0,0,0-2.18.74l-12.8,9.64-.71-.94L149,72.81a9.69,9.69,0,0,1,2.56-.94A31,31,0,0,0,161.81,67.27Z"/><path class="cls-30" d="M149.16,54l.17-.07.43,1h0A3,3,0,0,0,151,56.3a3,3,0,0,1,.26-1.79,2,2,0,0,1,3.21-.54h0l0,.05h.06a2,2,0,0,1-1.4,2.94,2.94,2.94,0,0,1-1.79-.25,3,3,0,0,0,1,1.57h0l0,0h0a3,3,0,0,0,1.24,1.36,3,3,0,0,1,.26-1.79,2,2,0,0,1,3.21-.54h0l0,.06.06,0h0a2,2,0,0,1-1.4,2.94,2.94,2.94,0,0,1-1.79-.24,3,3,0,0,0,1,1.56h0l-.06.12.13,0h0a3,3,0,0,0,1.24,1.36,3,3,0,0,1,.25-1.79,2,2,0,0,1,3.22-.54h0l0,.06.06,0h0a2,2,0,0,1-1.4,2.94,2.91,2.91,0,0,1-1.8-.25,3,3,0,0,0,1,1.57h0l0,.05h.05a3,3,0,0,0,1.24,1.36,3,3,0,0,1,.25-1.79,2,2,0,0,1,3.22-.54h0l0,.06h.06a2,2,0,0,1-1.4,2.93,3,3,0,0,1-1.8-.24,3,3,0,0,0,1,1.56h0l.8.68-.11.15-.78-.66h0a3.37,3.37,0,0,1-1.13-1.88,3.53,3.53,0,0,1-1.47-1.54,3.46,3.46,0,0,1-1.07-1.83,3.46,3.46,0,0,1-1.48-1.57A3.54,3.54,0,0,1,153.6,60a3.5,3.5,0,0,1-1.46-1.54,3.47,3.47,0,0,1-1.08-1.83A3.42,3.42,0,0,1,149.57,55h0Zm11.51,12.83a1.61,1.61,0,1,0-1.52-2,2.79,2.79,0,0,0-.23,1.74A2.82,2.82,0,0,0,160.67,66.87Zm-2.54-3.37a1.61,1.61,0,1,0-1.52-2,2.83,2.83,0,0,0-.23,1.75A2.82,2.82,0,0,0,158.13,63.5Zm-2.59-3.43a1.61,1.61,0,1,0-1.52-2,2.83,2.83,0,0,0-.22,1.75A2.8,2.8,0,0,0,155.54,60.07ZM153,56.7a1.61,1.61,0,1,0-1.52-2,2.83,2.83,0,0,0-.22,1.75A2.8,2.8,0,0,0,153,56.7Z"/><path class="cls-30" d="M154.6,53.84l0,.06,0,0,0,0a2.36,2.36,0,0,1,0,2.06,2.11,2.11,0,0,1-1.5,1.08,3.25,3.25,0,0,1-1.59-.14,3,3,0,0,0,.82,1.19h0l0,0,0,0v0a2.92,2.92,0,0,0,.91,1.11,3.12,3.12,0,0,1,.31-1.57,2.12,2.12,0,0,1,1.44-1.15,2.39,2.39,0,0,1,2,.56h0l0,.05.05,0,0,0a2.39,2.39,0,0,1,0,2.06,2.09,2.09,0,0,1-1.51,1.08,3.25,3.25,0,0,1-1.59-.14,2.88,2.88,0,0,0,.83,1.2l.07,0v0l0,0h0l0,.06a2.86,2.86,0,0,0,.93,1.13,3.11,3.11,0,0,1,.3-1.57,2.13,2.13,0,0,1,1.45-1.15,2.38,2.38,0,0,1,2,.56h0l0,.05,0,0v0a2.39,2.39,0,0,1,0,2.06,2.12,2.12,0,0,1-1.5,1.08,3.23,3.23,0,0,1-1.59-.14,2.78,2.78,0,0,0,.81,1.19h0l0,.06,0,0,0,0a2.86,2.86,0,0,0,.92,1.11,3.13,3.13,0,0,1,.3-1.57,2.13,2.13,0,0,1,1.45-1.15,2.38,2.38,0,0,1,2,.56h0l0,0,0,0v0a2.41,2.41,0,0,1,0,2.07,2.11,2.11,0,0,1-1.51,1.07,3,3,0,0,1-1.58-.14,2.71,2.71,0,0,0,.83,1.2l.09.08h0l.82.7-.29.38-.9-.74a3.62,3.62,0,0,1-1.16-1.9,3.58,3.58,0,0,1-1.45-1.54h0v0a3.59,3.59,0,0,1-1.07-1.81,3.58,3.58,0,0,1-1.45-1.54l-.11,0,.05-.09a3.59,3.59,0,0,1-1.07-1.82A3.67,3.67,0,0,1,152,58.51h0v0a3.51,3.51,0,0,1-1.07-1.82A3.52,3.52,0,0,1,149.43,55l-.07-.17h0L149,54l.45-.17.44,1h0l.06.1a2.88,2.88,0,0,0,.92,1.14,3.12,3.12,0,0,1,.31-1.57,2.1,2.1,0,0,1,1.44-1.15,2.39,2.39,0,0,1,2,.56Zm-3.21,2.49a2.62,2.62,0,0,0,1.58.22h0a1.64,1.64,0,0,0,1.19-.82,1.76,1.76,0,0,0,.05-1.51h0l0,0a1.79,1.79,0,0,0-1.46-.36,1.64,1.64,0,0,0-1.12.91A2.6,2.6,0,0,0,151.39,56.33Zm5.12,6.8a2.64,2.64,0,0,0,1.59.22h0a1.68,1.68,0,0,0,1.19-.82,1.84,1.84,0,0,0,.05-1.51h0v0a1.78,1.78,0,0,0-1.46-.36,1.66,1.66,0,0,0-1.12.91A2.68,2.68,0,0,0,156.51,63.13Zm5.34,1.27v0A1.77,1.77,0,0,0,160.4,64a1.66,1.66,0,0,0-1.12.91,2.6,2.6,0,0,0-.22,1.58,2.6,2.6,0,0,0,1.58.22h0a1.68,1.68,0,0,0,1.19-.82,1.81,1.81,0,0,0,0-1.5Zm-6.34-4.48a1.64,1.64,0,0,0,1.19-.82,1.76,1.76,0,0,0,.05-1.51h0l0,0a1.79,1.79,0,0,0-1.46-.36,1.64,1.64,0,0,0-1.12.91,2.68,2.68,0,0,0-.23,1.58,2.62,2.62,0,0,0,1.58.22Z"/><path class="cls-30" d="M150.6,52.39l.71.94a31.16,31.16,0,0,0-7.25,8.59,9.25,9.25,0,0,1-1.6,2.2l-12.8,9.65-.71-1,12.8-9.64a12,12,0,0,0,1.31-1.89A32.33,32.33,0,0,1,150.6,52.39Z"/><g class="cls-31"><path class="cls-32" d="M69,39h-.49v-.92H67.7v-.52h.79v-.93H69v.93h.8v.52H69Z"/></g><g class="cls-31"><path class="cls-32" d="M64.68,72.45h-.77V71H62.65v-.83h1.26V68.7h.77v1.46h1.26V71H64.68Z"/></g><ellipse class="cls-33" cx="70.94" cy="99.36" rx="15.61" ry="1.27"/><path class="cls-34" d="M70.35,42.89a5.22,5.22,0,0,0,1-3.86c-.22-1.09-2.93-1.89-3.86-1.89s-1.06,1.26-1.06,1.26-.85,2.08-1,2.47l.25.75s-1,1.86-.46,2.14a12.16,12.16,0,0,0,2,.3l.23,2.75,2.82-.88Z"/><path class="cls-35" d="M68.55,39.17c.06-.65-1.09-1-1.78-1.16-.43-.13,0-.87.54-1.12,1-.46,2.48.54,2.48.54s1.5.71,1.73,1.7-.59,3.61-.59,3.61.56-.28-.45-.52.22-1.38-.32-1.44-.88.94-.88.94l-.52-.28A13.86,13.86,0,0,1,68.55,39.17Z"/><polygon class="cls-36" points="69.6 42.15 68.41 44.21 67.33 44.43 67.21 44.06 68.35 43.94 69.47 42.15 69.6 42.15"/><polygon class="cls-37" points="62.63 96.54 66.02 97.52 66.97 84.74 66.59 81.17 68.11 69.83 71.16 80.48 78 97.53 81.35 97.53 78.22 85.98 75.15 78.92 74.2 64.35 67.01 63.88 62.86 63.44 62.63 96.54"/><path class="cls-38" d="M56.54,64.43s2.16-9.61,2.62-10.26c.29-.42,2-4.84,3.56-6.58l1.45-1.74h.17l0-.05v.05l2-.15,1,4.92,4-5.44A14.44,14.44,0,0,1,76,48.53a22.26,22.26,0,0,1,3.46,8.82c.11,1.9.11,9.05.11,9.05l-2.69-.21L76,58.36l-1.94-3.9-.35,4,.65,6.29L62.18,64l1.36-11,0,.65-2.59,4-1.59,7.18Z"/><polygon class="cls-39" points="66.28 80.56 66.6 84.55 65.91 97.18 66.99 84.36 66.63 80.6 68.11 69.83 67.69 68.34 66.28 80.56"/><line class="cls-40" x1="73.02" y1="81.21" x2="74.16" y2="82.42"/><polygon class="cls-41" points="57.3 99.28 63.85 99.28 64.34 98.82 64.76 99.28 65.91 99.28 65.91 97.18 62.65 96.75 61.03 98.19 57.3 99.01 57.3 99.28"/><polygon class="cls-41" points="78.16 99.55 81.42 99.38 81.5 98.52 81.05 97.53 78.16 97.64 78.16 99.55"/><polygon class="cls-3" points="67.51 49.7 71.19 45.29 70.71 45.22 68.11 46.62 67.01 45.46 66.36 45.69 67.51 49.7"/><polygon class="cls-34" points="76.05 68.84 76.57 69.12 77.27 68.35 77.43 69.6 76.5 71.56 77.1 71.58 78.26 70.18 79.1 68.8 79.14 67.59 78.96 66.58 77.57 66.32 76.05 68.84"/><polygon class="cls-39" points="74.24 64.88 68.42 64.65 62.97 63.97 74.31 64.46 74.24 64.88"/><polygon class="cls-39" points="76.56 63.01 75.99 58.36 74.05 54.46 74.16 53.92 76.33 58.35 76.56 63.01"/><rect class="cls-42" x="72.54" y="52.78" width="3.24" height="0.13" transform="translate(16.22 123.09) rotate(-85.96)"/><rect class="cls-43" x="61.9" y="51.1" width="3.56" height="0.13" transform="translate(7.68 110.62) rotate(-85.49)"/><line class="cls-40" x1="73.5" y1="80.94" x2="75.28" y2="82.76"/><line class="cls-40" x1="63.32" y1="80.6" x2="64.46" y2="81.81"/><polygon class="cls-39" points="63.66 52.84 63.64 53.38 60.98 57.53 63.66 52.84"/><polygon class="cls-34" points="59.61 67.42 59.04 67.61 58.51 66.73 58.1 67.93 58.63 70.01 58.04 69.93 57.17 68.36 56.61 66.86 56.81 65.66 57.2 64.7 58.61 64.68 59.61 67.42"/><path class="cls-44" d="M53.25,69.08v7h9.21v-7h-2v-2H55.25v2Zm6.8,0H55.66V67.43h4.39Z"/><path class="cls-15" d="M97.21,4.19a2,2,0,1,1-2-2A2,2,0,0,1,97.21,4.19Z"/><circle class="cls-15" cx="96.93" cy="7.86" r="0.87"/><circle class="cls-15" cx="101.73" cy="3.93" r="3.93" transform="translate(74.45 102.01) rotate(-76.67)"/><path class="cls-15" d="M50.77,92a1.05,1.05,0,1,1-1.05-1A1,1,0,0,1,50.77,92Z"/><path class="cls-15" d="M53.61,87.18a2.73,2.73,0,1,1-2.72-2.72A2.72,2.72,0,0,1,53.61,87.18Z"/><ellipse class="cls-33" cx="125.64" cy="98.94" rx="20.18" ry="1.65"/></g></g></g></svg>